<svg aria-hidden="true" style="position: absolute; width: 0; height: 0; overflow: hidden;" version="1.1" xmlns="http://www.w3.org/2000/svg" xmlns:xlink="http://www.w3.org/1999/xlink">
<defs>
<symbol id="icon-logo" viewBox="0 0 161 32">
<path fill="#8a7dd8" style="fill: var(--color1, #8a7dd8)" d="M130.165 12.235c0-1.248 1.012-2.259 2.259-2.259h18.071c1.247 0 2.259 1.011 2.259 2.259v15.059c0 1.248-1.012 2.259-2.259 2.259h-18.071c-1.247 0-2.259-1.011-2.259-2.259v-15.059z"></path>
<path fill="none" stroke="#1f2024" style="stroke: var(--color2, #1f2024)" stroke-linejoin="miter" stroke-linecap="butt" stroke-miterlimit="4" stroke-width="0.7529" d="M130.165 12.235c0-1.248 1.012-2.259 2.259-2.259h18.071c1.247 0 2.259 1.011 2.259 2.259v15.059c0 1.248-1.012 2.259-2.259 2.259h-18.071c-1.247 0-2.259-1.011-2.259-2.259v-15.059z"></path>
<path fill="#aea5ee" style="fill: var(--color3, #aea5ee)" d="M139.576 12.235c0-1.248 1.012-2.259 2.259-2.259h16.565c1.247 0 2.259 1.011 2.259 2.259v15.059c0 1.248-1.012 2.259-2.259 2.259h-16.565c-1.247 0-2.259-1.011-2.259-2.259v-15.059z"></path>
<path fill="none" stroke="#1f2024" style="stroke: var(--color2, #1f2024)" stroke-linejoin="miter" stroke-linecap="butt" stroke-miterlimit="4" stroke-width="0.7529" d="M139.576 12.235c0-1.248 1.012-2.259 2.259-2.259h16.565c1.247 0 2.259 1.011 2.259 2.259v15.059c0 1.248-1.012 2.259-2.259 2.259h-16.565c-1.247 0-2.259-1.011-2.259-2.259v-15.059z"></path>
<path fill="#fff" style="fill: var(--color4, #fff)" opacity="0.5" d="M151.624 10.353h3.576l-5.271 18.824h-3.576l5.271-18.824z"></path>
<path fill="#fff" style="fill: var(--color4, #fff)" opacity="0.5" d="M150.212 10.353h0.565l-5.271 18.824h-0.565l5.271-18.824z"></path>
<path fill="#1f2024" style="fill: var(--color2, #1f2024)" opacity="0.16" d="M137.506 21.082c0 1.871-1.517 3.388-3.388 3.388s-3.388-1.517-3.388-3.388c0-1.871 1.517-3.388 3.388-3.388s3.388 1.517 3.388 3.388z"></path>
<path fill="#aea5ee" style="fill: var(--color3, #aea5ee)" d="M137.412 20.047c0 1.871-1.517 3.388-3.388 3.388s-3.388-1.517-3.388-3.388c0-1.871 1.517-3.388 3.388-3.388s3.388 1.517 3.388 3.388z"></path>
<path fill="none" stroke="#1f2024" style="stroke: var(--color2, #1f2024)" stroke-linejoin="miter" stroke-linecap="butt" stroke-miterlimit="4" stroke-width="0.7529" d="M137.412 20.047c0 1.871-1.517 3.388-3.388 3.388s-3.388-1.517-3.388-3.388c0-1.871 1.517-3.388 3.388-3.388s3.388 1.517 3.388 3.388z"></path>
<path fill="none" stroke="#fff" style="stroke: var(--color4, #fff)" stroke-linejoin="round" stroke-linecap="round" stroke-miterlimit="4" stroke-width="0.7529" d="M134.965 17.788c0.343 0.182 0.635 0.478 0.847 0.847"></path>
<path fill="#cae9fa" style="fill: var(--color5, #cae9fa)" d="M134.4 20.047c0 1.247-1.011 2.259-2.259 2.259s-2.259-1.011-2.259-2.259c0-1.247 1.011-2.259 2.259-2.259s2.259 1.011 2.259 2.259z"></path>
<path fill="none" stroke="#1f2024" style="stroke: var(--color2, #1f2024)" stroke-linejoin="miter" stroke-linecap="butt" stroke-miterlimit="4" stroke-width="0.7529" d="M134.4 20.047c0 1.247-1.011 2.259-2.259 2.259s-2.259-1.011-2.259-2.259c0-1.247 1.011-2.259 2.259-2.259s2.259 1.011 2.259 2.259z"></path>
<path fill="#1f2024" style="fill: var(--color2, #1f2024)" d="M152.376 22.588c0.416 0 0.762 0.342 0.66 0.745-0.331 1.303-1.512 2.266-2.919 2.266s-2.587-0.964-2.919-2.266c-0.103-0.403 0.244-0.745 0.66-0.745h4.518z"></path>
<path fill="#aea5ee" style="fill: var(--color3, #aea5ee); stroke: var(--color2, #1f2024)" stroke="#1f2024" stroke-linejoin="miter" stroke-linecap="butt" stroke-miterlimit="4" stroke-width="0.7529" d="M145.318 5.365h0.188v3.482h-0.188v-3.482z"></path>
<path fill="#fff" style="fill: var(--color4, #fff)" d="M146.541 5.271c0 0.624-0.506 1.129-1.129 1.129s-1.129-0.506-1.129-1.129c0-0.624 0.506-1.129 1.129-1.129s1.129 0.506 1.129 1.129z"></path>
<path fill="#fff" style="fill: var(--color4, #fff); stroke: var(--color2, #1f2024)" opacity="0.5" stroke="#1f2024" stroke-linejoin="miter" stroke-linecap="butt" stroke-miterlimit="4" stroke-width="0.7529" d="M141.271 6.212c0-2.287 1.854-4.141 4.141-4.141s4.141 1.854 4.141 4.141v2.635h-8.282v-2.635z"></path>
<path fill="#aea5ee" style="fill: var(--color3, #aea5ee)" d="M140.141 9.6c0-0.416 0.337-0.753 0.753-0.753h9.035c0.416 0 0.753 0.337 0.753 0.753v0.376h-10.541v-0.376z"></path>
<path fill="none" stroke="#1f2024" style="stroke: var(--color2, #1f2024)" stroke-linejoin="miter" stroke-linecap="butt" stroke-miterlimit="4" stroke-width="0.7529" d="M140.141 9.6c0-0.416 0.337-0.753 0.753-0.753h9.035c0.416 0 0.753 0.337 0.753 0.753v0.376h-10.541v-0.376z"></path>
<path fill="#1f2024" style="fill: var(--color2, #1f2024); stroke: var(--color2, #1f2024)" stroke="#1f2024" stroke-linejoin="miter" stroke-linecap="butt" stroke-miterlimit="4" stroke-width="0.7529" d="M145.208 12.67v0c-0.801 0.297-1.378 0.981-1.605 1.795l-0.146 0.525-0.44-0.322c-0.651-0.477-1.498-0.63-2.296-0.333l4.487-1.665zM145.208 12.67c1.313-0.486 2.773 0.23 3.249 1.646 0.066 0.199 0.108 0.403 0.129 0.607l0.001 0.013 0.003 0.013c0.211 1.226-0.089 2.718-0.665 4.099-0.549 1.317-1.324 2.478-2.063 3.16-0.976-0.044-2.266-0.433-3.475-1.094-1.269-0.694-2.389-1.653-2.953-2.744l-0.006-0.011M145.208 12.67l-5.781 5.689M139.428 18.359l-0.007-0.011M139.428 18.359l-0.007-0.011M139.421 18.348c-0.105-0.174-0.195-0.359-0.262-0.557-0.478-1.423 0.24-2.965 1.562-3.456l-1.301 4.013zM154.114 12.67h0.001c0.801 0.297 1.378 0.981 1.606 1.796l0.146 0.524 0.439-0.321c0.652-0.477 1.499-0.63 2.297-0.333 1.321 0.491 2.040 2.032 1.562 3.456-0.068 0.199-0.156 0.384-0.262 0.557l-0.007 0.011-0.006 0.012c-0.566 1.090-1.685 2.050-2.953 2.744-1.208 0.661-2.499 1.050-3.476 1.094-0.739-0.682-1.514-1.843-2.063-3.16-0.576-1.382-0.876-2.874-0.664-4.099l0.002-0.013 0.002-0.013c0.021-0.204 0.062-0.407 0.128-0.606 0.476-1.416 1.936-2.133 3.248-1.646z"></path>
<path fill="#fe204f" style="fill: var(--color6, #fe204f)" d="M149.538 13.915c-0.539-1.604-2.211-2.446-3.736-1.88-0.926 0.343-1.582 1.129-1.837 2.048-0.747-0.547-1.726-0.726-2.65-0.383-1.525 0.566-2.327 2.325-1.787 3.929 0.076 0.227 0.178 0.437 0.296 0.632 1.224 2.363 4.76 4.024 6.902 4.045 1.655-1.43 3.416-5.057 2.96-7.703-0.024-0.23-0.071-0.461-0.146-0.687zM151.232 13.915c0.538-1.604 2.211-2.446 3.736-1.88 0.926 0.343 1.581 1.129 1.837 2.048 0.747-0.547 1.726-0.726 2.65-0.383 1.525 0.566 2.327 2.325 1.788 3.929-0.077 0.227-0.178 0.437-0.296 0.632-1.224 2.363-4.76 4.024-6.903 4.045-1.655-1.43-3.416-5.057-2.959-7.703 0.024-0.23 0.071-0.461 0.146-0.687z"></path>
<path fill="none" stroke="#1f2024" style="stroke: var(--color2, #1f2024)" stroke-linejoin="miter" stroke-linecap="butt" stroke-miterlimit="4" stroke-width="0.7529" d="M145.932 12.388v0c-0.802 0.297-1.379 0.981-1.606 1.795l-0.145 0.525-0.44-0.322c-0.652-0.477-1.499-0.63-2.297-0.333l4.488-1.665zM145.932 12.388c1.312-0.486 2.772 0.23 3.248 1.646 0.066 0.199 0.108 0.403 0.129 0.607l0.002 0.013 0.002 0.013c0.212 1.226-0.089 2.718-0.664 4.099-0.55 1.317-1.325 2.478-2.064 3.16-0.976-0.044-2.266-0.433-3.475-1.094-1.269-0.694-2.389-1.653-2.953-2.744l-0.006-0.011M145.932 12.388l-5.782 5.689M140.151 18.077l-0.007-0.011M140.151 18.077l-0.007-0.011M140.144 18.066c-0.104-0.174-0.194-0.359-0.261-0.557-0.478-1.423 0.239-2.965 1.561-3.456l-1.301 4.013zM154.838 12.388v0c0.801 0.297 1.379 0.981 1.606 1.796l0.146 0.524 0.439-0.321c0.652-0.477 1.499-0.63 2.297-0.333 1.321 0.491 2.040 2.032 1.562 3.456-0.068 0.199-0.156 0.384-0.262 0.557l-0.007 0.011-0.006 0.012c-0.565 1.090-1.685 2.050-2.953 2.744-1.208 0.661-2.499 1.050-3.476 1.094-0.739-0.682-1.514-1.843-2.063-3.16-0.575-1.382-0.876-2.874-0.664-4.099l0.003-0.013 0.001-0.013c0.021-0.204 0.062-0.407 0.128-0.606 0.476-1.416 1.937-2.133 3.249-1.646z"></path>
<path fill="#e79834" style="fill: var(--color7, #e79834)" d="M111.806 10.102c-3.215 0.607-3.285-3.322-2.904-5.938 0.014-0.101-0.125-0.147-0.179-0.060-9.165 14.54 0.226 27.048 12.056 27.048 11.837 0 18.791-10.766 10.112-26.799-0.049-0.090-0.194-0.053-0.189 0.049 0.132 2.762-1.105 4.996-3.732 4.277-3.683-1.007 0.133-6.407-5.7-8.064-0.074-0.021-0.145 0.052-0.118 0.124 0.994 2.611 0.376 5.001-2.726 5.369-3.091 0.366-3.881-1.9-3.113-4.625 0.023-0.080-0.064-0.148-0.136-0.106-3.893 2.247 0.098 8.069-3.373 8.725z"></path>
<path fill="none" stroke="#1f2024" style="stroke: var(--color2, #1f2024)" stroke-linejoin="round" stroke-linecap="butt" stroke-miterlimit="4" stroke-width="0.7529" d="M111.806 10.102c-3.215 0.607-3.285-3.322-2.904-5.938 0.014-0.101-0.125-0.147-0.179-0.060-9.165 14.54 0.226 27.048 12.056 27.048 11.837 0 18.791-10.766 10.112-26.799-0.049-0.090-0.194-0.053-0.189 0.049 0.132 2.762-1.105 4.996-3.732 4.277-3.683-1.007 0.133-6.407-5.7-8.064-0.074-0.021-0.145 0.052-0.118 0.124 0.994 2.611 0.376 5.001-2.726 5.369-3.091 0.366-3.881-1.9-3.113-4.625 0.023-0.080-0.064-0.148-0.136-0.106-3.893 2.247 0.098 8.069-3.373 8.725z"></path>
<path fill="#f2c95c" style="fill: var(--color8, #f2c95c)" d="M117.661 7.944c1.751 6.065-6.687 7.915-9.441 2.936-0.089-0.162-0.346-0.129-0.376 0.054-1.815 10.887 6.093 19.748 14.556 19.278 8.923-0.495 14.507-13.782 8.268-19.749-0.075-0.072-0.201-0.061-0.272 0.014-5.771 6.143-6.611-3.454-12.578-2.78-0.115 0.013-0.189 0.135-0.157 0.246z"></path>
<path fill="#f9e174" style="fill: var(--color9, #f9e174)" d="M122.893 12.895c-0.588 4.548 5.664 5.034 7.27 1.238 0.072-0.17 0.333-0.174 0.388 0.002 2.397 7.776-2.51 15.066-8.803 15.622-6.66 0.588-12.205-8.562-8.264-13.635 0.064-0.082 0.188-0.090 0.27-0.026 4.876 3.829 4.517-3.223 8.947-3.421 0.116-0.005 0.206 0.104 0.192 0.219z"></path>
<path fill="#1f2024" style="fill: var(--color2, #1f2024)" d="M126.624 21.318c0.415 0 0.762 0.343 0.653 0.744-0.327 1.198-1.422 2.079-2.724 2.079s-2.398-0.881-2.725-2.079c-0.109-0.401 0.238-0.744 0.654-0.744h4.141z"></path>
<path fill="#1f2024" style="fill: var(--color2, #1f2024); stroke: var(--color2, #1f2024)" stroke="#1f2024" stroke-linejoin="miter" stroke-linecap="butt" stroke-miterlimit="4" stroke-width="0.7529" d="M116.694 16.043c-0.948-0.021-1.732 0.741-1.732 1.691 0 0.909 0.721 1.656 1.63 1.688 5.091 0.176 8.407 0.208 13.392 0.008 0.905-0.036 1.619-0.783 1.619-1.687 0-0.955-0.79-1.718-1.741-1.693-4.692 0.12-7.982 0.11-13.168-0.006z"></path>
<path fill="#eb0d18" style="fill: var(--color10, #eb0d18); stroke: var(--color2, #1f2024)" stroke="#1f2024" stroke-linejoin="miter" stroke-linecap="butt" stroke-miterlimit="4" stroke-width="0.7529" d="M117.635 16.043c-0.948-0.021-1.732 0.741-1.732 1.691 0 0.909 0.721 1.656 1.63 1.688 5.091 0.176 8.407 0.208 13.392 0.008 0.905-0.036 1.619-0.783 1.619-1.687 0-0.955-0.79-1.718-1.741-1.693-4.692 0.12-7.982 0.11-13.168-0.006z"></path>
<path fill="#fff" style="fill: var(--color4, #fff)" d="M120.659 16h2.071l-1.035 3.388h-2.071l1.035-3.388z"></path>
<path fill="none" stroke="#1f2024" style="stroke: var(--color2, #1f2024)" stroke-linejoin="miter" stroke-linecap="butt" stroke-miterlimit="4" stroke-width="0.7529" d="M117.635 16.043c-0.948-0.021-1.732 0.741-1.732 1.691 0 0.909 0.721 1.656 1.63 1.688 5.091 0.176 8.407 0.208 13.392 0.008 0.905-0.036 1.619-0.783 1.619-1.687 0-0.955-0.79-1.718-1.741-1.693-4.692 0.12-7.982 0.11-13.168-0.006z"></path>
<path fill="#e79834" style="fill: var(--color7, #e79834)" d="M112.992 19.41l-6.842-3.034h-2.15c0.627 3.226 2.877 6.794 5.074 8l1.935-0.099c0.74 0.016 1.423-0.23 1.983-0.797 1.339-1.357 1.286-3.459 0-4.070z"></path>
<path fill="none" stroke="#1f2024" style="stroke: var(--color2, #1f2024)" stroke-linejoin="round" stroke-linecap="butt" stroke-miterlimit="4" stroke-width="0.7529" d="M112.992 19.41l-6.842-3.034h-2.15c0.627 3.226 2.877 6.794 5.074 8l1.935-0.099c0.74 0.016 1.423-0.23 1.983-0.797 1.339-1.357 1.286-3.459 0-4.070z"></path>
<path fill="#de7e25" style="fill: var(--color11, #de7e25); stroke: var(--color2, #1f2024)" stroke="#1f2024" stroke-linejoin="round" stroke-linecap="butt" stroke-miterlimit="4" stroke-width="0.7529" d="M104 16.376c0.886 5.82 4.089 9.886 6.829 7.104 1.336-1.357 1.283-3.459 0-4.070l-6.829-3.034z"></path>
<path fill="#af6017" style="fill: var(--color12, #af6017); stroke: var(--color2, #1f2024)" stroke="#1f2024" stroke-linejoin="round" stroke-linecap="butt" stroke-miterlimit="4" stroke-width="0.7529" d="M109.741 21.365c0 0.728-0.569 1.318-1.271 1.318s-1.271-0.59-1.271-1.318c0-0.728 0.569-1.318 1.271-1.318s1.271 0.59 1.271 1.318z"></path>
<path fill="#edb146" style="fill: var(--color13, #edb146)" d="M109.117 20.249c-0.386 0.223-0.645 0.64-0.645 1.117s0.259 0.894 0.645 1.117c-0.19 0.11-0.41 0.173-0.645 0.173-0.712 0-1.29-0.578-1.29-1.29s0.578-1.29 1.29-1.29c0.234 0 0.455 0.063 0.645 0.173z"></path>
<path fill="#1f2024" style="fill: var(--color2, #1f2024)" d="M109.117 20.249l0.188 0.326c0.117-0.067 0.188-0.192 0.188-0.326s-0.072-0.259-0.188-0.326l-0.188 0.326zM109.117 22.484l0.188 0.326c0.117-0.067 0.188-0.192 0.188-0.326s-0.072-0.259-0.188-0.326l-0.188 0.326zM108.849 21.366c0-0.338 0.183-0.633 0.456-0.792l-0.376-0.652c-0.498 0.288-0.833 0.826-0.833 1.443h0.753zM109.305 22.158c-0.274-0.159-0.456-0.454-0.456-0.792h-0.753c0 0.617 0.335 1.156 0.833 1.443l0.376-0.652zM108.929 22.158c-0.135 0.077-0.29 0.122-0.456 0.122v0.753c0.302 0 0.587-0.081 0.833-0.223l-0.376-0.652zM108.472 22.28c-0.504 0-0.914-0.409-0.914-0.914h-0.753c0 0.92 0.746 1.667 1.667 1.667v-0.753zM107.559 21.366c0-0.504 0.409-0.913 0.914-0.913v-0.753c-0.92 0-1.667 0.746-1.667 1.666h0.753zM108.472 20.453c0.167 0 0.322 0.045 0.456 0.122l0.376-0.652c-0.246-0.142-0.531-0.223-0.833-0.223v0.753z"></path>
<path fill="#8a7dd8" style="fill: var(--color1, #8a7dd8)" d="M78.4 12.235c0-1.248 1.011-2.259 2.259-2.259h18.071c1.247 0 2.259 1.011 2.259 2.259v15.059c0 1.248-1.012 2.259-2.259 2.259h-18.071c-1.248 0-2.259-1.011-2.259-2.259v-15.059z"></path>
<path fill="none" stroke="#1f2024" style="stroke: var(--color2, #1f2024)" stroke-linejoin="miter" stroke-linecap="butt" stroke-miterlimit="4" stroke-width="0.7529" d="M78.4 12.235c0-1.248 1.011-2.259 2.259-2.259h18.071c1.247 0 2.259 1.011 2.259 2.259v15.059c0 1.248-1.012 2.259-2.259 2.259h-18.071c-1.248 0-2.259-1.011-2.259-2.259v-15.059z"></path>
<path fill="#aea5ee" style="fill: var(--color3, #aea5ee)" d="M87.812 12.235c0-1.248 1.011-2.259 2.259-2.259h16.565c1.247 0 2.259 1.011 2.259 2.259v15.059c0 1.248-1.012 2.259-2.259 2.259h-16.565c-1.248 0-2.259-1.011-2.259-2.259v-15.059z"></path>
<path fill="none" stroke="#1f2024" style="stroke: var(--color2, #1f2024)" stroke-linejoin="miter" stroke-linecap="butt" stroke-miterlimit="4" stroke-width="0.7529" d="M87.812 12.235c0-1.248 1.011-2.259 2.259-2.259h16.565c1.247 0 2.259 1.011 2.259 2.259v15.059c0 1.248-1.012 2.259-2.259 2.259h-16.565c-1.248 0-2.259-1.011-2.259-2.259v-15.059z"></path>
<path fill="#fff" style="fill: var(--color4, #fff)" opacity="0.5" d="M99.859 10.353h3.576l-5.271 18.824h-3.576l5.271-18.824z"></path>
<path fill="#fff" style="fill: var(--color4, #fff)" opacity="0.5" d="M98.447 10.353h0.565l-5.271 18.824h-0.565l5.271-18.824z"></path>
<path fill="#1f2024" style="fill: var(--color2, #1f2024)" opacity="0.16" d="M78.4 19.294c0-0.416 0.337-0.753 0.753-0.753h5.647c0.416 0 0.753 0.337 0.753 0.753v3.765c0 0.416-0.337 0.753-0.753 0.753h-5.647c-0.416 0-0.753-0.337-0.753-0.753v-3.765z"></path>
<path fill="#8a7dd8" style="fill: var(--color1, #8a7dd8)" d="M78.024 18.165c0-0.416 0.337-0.753 0.753-0.753h6.118c0.416 0 0.753 0.337 0.753 0.753v3.765c0 0.416-0.337 0.753-0.753 0.753h-6.118c-0.416 0-0.753-0.337-0.753-0.753v-3.765z"></path>
<path fill="none" stroke="#1f2024" style="stroke: var(--color2, #1f2024)" stroke-linejoin="miter" stroke-linecap="butt" stroke-miterlimit="4" stroke-width="0.7529" d="M78.024 18.165c0-0.416 0.337-0.753 0.753-0.753h6.118c0.416 0 0.753 0.337 0.753 0.753v3.765c0 0.416-0.337 0.753-0.753 0.753h-6.118c-0.416 0-0.753-0.337-0.753-0.753v-3.765z"></path>
<path fill="#aea5ee" style="fill: var(--color3, #aea5ee)" d="M83.388 18.165c0-0.416 0.337-0.753 0.753-0.753h0.753c0.416 0 0.753 0.337 0.753 0.753v3.765c0 0.416-0.337 0.753-0.753 0.753h-0.753c-0.416 0-0.753-0.337-0.753-0.753v-3.765z"></path>
<path fill="none" stroke="#1f2024" style="stroke: var(--color2, #1f2024)" stroke-linejoin="miter" stroke-linecap="butt" stroke-miterlimit="4" stroke-width="0.7529" d="M83.388 18.165c0-0.416 0.337-0.753 0.753-0.753h0.753c0.416 0 0.753 0.337 0.753 0.753v3.765c0 0.416-0.337 0.753-0.753 0.753h-0.753c-0.416 0-0.753-0.337-0.753-0.753v-3.765z"></path>
<path fill="#1f2024" style="fill: var(--color2, #1f2024)" d="M80 19.2c0.208 0 0.376 0.169 0.376 0.376v1.129c0 0.208-0.169 0.376-0.376 0.376s-0.376-0.169-0.376-0.376v-1.129c0-0.208 0.169-0.376 0.376-0.376z"></path>
<path fill="#1f2024" style="fill: var(--color2, #1f2024)" d="M81.129 19.2c0.208 0 0.376 0.169 0.376 0.376v1.129c0 0.208-0.169 0.376-0.376 0.376s-0.376-0.169-0.376-0.376v-1.129c0-0.208 0.169-0.376 0.376-0.376z"></path>
<path fill="#aea5ee" style="fill: var(--color3, #aea5ee); stroke: var(--color2, #1f2024)" stroke="#1f2024" stroke-linejoin="miter" stroke-linecap="butt" stroke-miterlimit="4" stroke-width="0.7529" d="M92.988 5.176h1.318v4.235h-1.318v-4.235z"></path>
<path fill="#9bcef1" style="fill: var(--color14, #9bcef1)" d="M95.812 4.424c0 1.196-0.969 2.165-2.165 2.165s-2.165-0.969-2.165-2.165c0-1.196 0.969-2.165 2.165-2.165s2.165 0.969 2.165 2.165z"></path>
<path fill="none" stroke="#1f2024" style="stroke: var(--color2, #1f2024)" stroke-linejoin="miter" stroke-linecap="butt" stroke-miterlimit="4" stroke-width="0.7529" d="M95.812 4.424c0 1.196-0.969 2.165-2.165 2.165s-2.165-0.969-2.165-2.165c0-1.196 0.969-2.165 2.165-2.165s2.165 0.969 2.165 2.165z"></path>
<path fill="#fff" style="fill: var(--color4, #fff)" d="M95.059 3.576c0 0.312-0.253 0.565-0.565 0.565s-0.565-0.253-0.565-0.565c0-0.312 0.253-0.565 0.565-0.565s0.565 0.253 0.565 0.565z"></path>
<path fill="#aea5ee" style="fill: var(--color3, #aea5ee)" d="M91.859 9.224c0-0.208 0.169-0.376 0.376-0.376h2.824c0.208 0 0.376 0.169 0.376 0.376v0.753h-3.576v-0.753z"></path>
<path fill="none" stroke="#1f2024" style="stroke: var(--color2, #1f2024)" stroke-linejoin="miter" stroke-linecap="butt" stroke-miterlimit="4" stroke-width="0.7529" d="M91.859 9.224c0-0.208 0.169-0.376 0.376-0.376h2.824c0.208 0 0.376 0.169 0.376 0.376v0.753h-3.576v-0.753z"></path>
<path fill="#1f2024" style="fill: var(--color2, #1f2024); stroke: var(--color2, #1f2024)" stroke="#1f2024" stroke-linejoin="miter" stroke-linecap="butt" stroke-miterlimit="4" stroke-width="0.7529" d="M107.799 19.529c0 2.164-0.538 4.106-1.388 5.494-0.854 1.394-1.983 2.177-3.163 2.177s-2.31-0.783-3.163-2.177c-0.85-1.388-1.388-3.329-1.388-5.494s0.538-4.106 1.388-5.494c0.854-1.394 1.983-2.177 3.163-2.177s2.31 0.783 3.163 2.177c0.85 1.388 1.388 3.329 1.388 5.494z"></path>
<path fill="#fff" style="fill: var(--color4, #fff)" d="M108.607 19.435c0 4.444-2.206 8.047-4.928 8.047s-4.928-3.603-4.928-8.047c0-4.444 2.206-8.047 4.928-8.047s4.928 3.603 4.928 8.047z"></path>
<path fill="none" stroke="#1f2024" style="stroke: var(--color2, #1f2024)" stroke-linejoin="miter" stroke-linecap="butt" stroke-miterlimit="4" stroke-width="0.7529" d="M108.231 19.435c0 2.164-0.537 4.106-1.387 5.494-0.855 1.394-1.983 2.177-3.164 2.177s-2.31-0.783-3.163-2.177c-0.85-1.388-1.388-3.329-1.388-5.494s0.538-4.106 1.388-5.494c0.854-1.394 1.983-2.177 3.163-2.177s2.31 0.783 3.164 2.177c0.85 1.388 1.387 3.329 1.387 5.494z"></path>
<path fill="#1058c5" style="fill: var(--color15, #1058c5); stroke: var(--color2, #1f2024)" stroke="#1f2024" stroke-linejoin="miter" stroke-linecap="butt" stroke-miterlimit="4" stroke-width="0.7529" d="M104.262 19.247c0 1.297-0.98 2.306-2.138 2.306s-2.138-1.009-2.138-2.306c0-1.297 0.98-2.306 2.138-2.306s2.138 1.009 2.138 2.306z"></path>
<path fill="#1f2024" style="fill: var(--color2, #1f2024); stroke: var(--color2, #1f2024)" stroke="#1f2024" stroke-linejoin="miter" stroke-linecap="butt" stroke-miterlimit="4" stroke-width="0.7529" d="M102.792 19.247c0 0.539-0.447 0.988-1.015 0.988s-1.015-0.449-1.015-0.988 0.448-0.988 1.015-0.988c0.568 0 1.015 0.449 1.015 0.988z"></path>
<path fill="#fff" style="fill: var(--color4, #fff)" d="M103.601 18.494c0 0.39-0.306 0.706-0.684 0.706s-0.684-0.316-0.684-0.706c0-0.39 0.306-0.706 0.684-0.706s0.684 0.316 0.684 0.706z"></path>
<path fill="#1f2024" style="fill: var(--color2, #1f2024); stroke: var(--color2, #1f2024)" stroke="#1f2024" stroke-linejoin="miter" stroke-linecap="butt" stroke-miterlimit="4" stroke-width="0.7529" d="M97.856 19.529c0 2.164-0.538 4.106-1.388 5.494-0.854 1.394-1.983 2.177-3.163 2.177s-2.31-0.783-3.164-2.177c-0.85-1.388-1.388-3.329-1.388-5.494s0.538-4.106 1.388-5.494c0.854-1.394 1.983-2.177 3.164-2.177s2.31 0.783 3.163 2.177c0.85 1.388 1.388 3.329 1.388 5.494z"></path>
<path fill="#fff" style="fill: var(--color4, #fff)" d="M98.665 19.435c0 4.444-2.206 8.047-4.928 8.047s-4.928-3.603-4.928-8.047c0-4.444 2.206-8.047 4.928-8.047s4.928 3.603 4.928 8.047z"></path>
<path fill="none" stroke="#1f2024" style="stroke: var(--color2, #1f2024)" stroke-linejoin="miter" stroke-linecap="butt" stroke-miterlimit="4" stroke-width="0.7529" d="M98.288 19.435c0 2.164-0.537 4.106-1.387 5.494-0.855 1.394-1.983 2.177-3.164 2.177s-2.31-0.783-3.164-2.177c-0.85-1.388-1.388-3.329-1.388-5.494s0.538-4.106 1.388-5.494c0.854-1.394 1.983-2.177 3.164-2.177s2.309 0.783 3.164 2.177c0.85 1.388 1.387 3.329 1.387 5.494z"></path>
<path fill="#1058c5" style="fill: var(--color15, #1058c5); stroke: var(--color2, #1f2024)" stroke="#1f2024" stroke-linejoin="miter" stroke-linecap="butt" stroke-miterlimit="4" stroke-width="0.7529" d="M94.319 19.247c0 1.297-0.98 2.306-2.138 2.306s-2.138-1.009-2.138-2.306 0.98-2.306 2.138-2.306c1.159 0 2.138 1.009 2.138 2.306z"></path>
<path fill="#1f2024" style="fill: var(--color2, #1f2024); stroke: var(--color2, #1f2024)" stroke="#1f2024" stroke-linejoin="miter" stroke-linecap="butt" stroke-miterlimit="4" stroke-width="0.7529" d="M92.849 19.247c0 0.539-0.447 0.988-1.014 0.988s-1.014-0.449-1.014-0.988 0.447-0.988 1.014-0.988c0.567 0 1.014 0.449 1.014 0.988z"></path>
<path fill="#fff" style="fill: var(--color4, #fff)" d="M93.658 18.494c0 0.39-0.306 0.706-0.684 0.706s-0.684-0.316-0.684-0.706c0-0.39 0.306-0.706 0.684-0.706s0.684 0.316 0.684 0.706z"></path>
<path fill="#8a7dd8" style="fill: var(--color1, #8a7dd8)" d="M52.518 12.235c0-1.248 1.011-2.259 2.259-2.259h18.071c1.248 0 2.259 1.011 2.259 2.259v15.059c0 1.248-1.011 2.259-2.259 2.259h-18.071c-1.248 0-2.259-1.011-2.259-2.259v-15.059z"></path>
<path fill="none" stroke="#1f2024" style="stroke: var(--color2, #1f2024)" stroke-linejoin="miter" stroke-linecap="butt" stroke-miterlimit="4" stroke-width="0.7529" d="M52.518 12.235c0-1.248 1.011-2.259 2.259-2.259h18.071c1.248 0 2.259 1.011 2.259 2.259v15.059c0 1.248-1.011 2.259-2.259 2.259h-18.071c-1.248 0-2.259-1.011-2.259-2.259v-15.059z"></path>
<path fill="#aea5ee" style="fill: var(--color3, #aea5ee)" d="M61.929 12.235c0-1.248 1.011-2.259 2.259-2.259h16.565c1.248 0 2.259 1.011 2.259 2.259v15.059c0 1.248-1.011 2.259-2.259 2.259h-16.565c-1.248 0-2.259-1.011-2.259-2.259v-15.059z"></path>
<path fill="none" stroke="#1f2024" style="stroke: var(--color2, #1f2024)" stroke-linejoin="miter" stroke-linecap="butt" stroke-miterlimit="4" stroke-width="0.7529" d="M61.929 12.235c0-1.248 1.011-2.259 2.259-2.259h16.565c1.248 0 2.259 1.011 2.259 2.259v15.059c0 1.248-1.011 2.259-2.259 2.259h-16.565c-1.248 0-2.259-1.011-2.259-2.259v-15.059z"></path>
<path fill="#fff" style="fill: var(--color4, #fff)" opacity="0.5" d="M73.976 10.353h3.576l-5.271 18.824h-3.576l5.271-18.824z"></path>
<path fill="#fff" style="fill: var(--color4, #fff)" opacity="0.5" d="M72.565 10.353h0.565l-5.271 18.824h-0.565l5.271-18.824z"></path>
<path fill="none" stroke="#1f2024" style="stroke: var(--color2, #1f2024)" stroke-linejoin="miter" stroke-linecap="round" stroke-miterlimit="4" stroke-width="0.9412" d="M78.682 19.012c0-0.399-0.159-0.782-0.441-1.065s-0.665-0.441-1.065-0.441-0.782 0.159-1.065 0.441c-0.282 0.282-0.441 0.666-0.441 1.065"></path>
<path fill="none" stroke="#1f2024" style="stroke: var(--color2, #1f2024)" stroke-linejoin="miter" stroke-linecap="round" stroke-miterlimit="4" stroke-width="0.9412" d="M69.647 19.012c0-0.399-0.159-0.782-0.441-1.065s-0.665-0.441-1.065-0.441-0.782 0.159-1.065 0.441c-0.282 0.282-0.441 0.666-0.441 1.065"></path>
<path fill="#1f2024" style="fill: var(--color2, #1f2024)" opacity="0.16" d="M53.365 20.706c0-0.416 0.337-0.753 0.753-0.753h5.365c0.416 0 0.753 0.337 0.753 0.753v2.918c0 0.416-0.337 0.753-0.753 0.753h-5.365c-0.416 0-0.753-0.337-0.753-0.753v-2.918z"></path>
<path fill="#4795e0" style="fill: var(--color16, #4795e0); stroke: var(--color2, #1f2024)" stroke="#1f2024" stroke-linejoin="miter" stroke-linecap="butt" stroke-miterlimit="4" stroke-width="0.7529" d="M56.659 17.129h0.094v4.235h-0.094v-4.235z"></path>
<path fill="#9bcef1" style="fill: var(--color14, #9bcef1)" d="M58.259 15.718c0 0.832-0.674 1.506-1.506 1.506s-1.506-0.674-1.506-1.506c0-0.832 0.674-1.506 1.506-1.506s1.506 0.674 1.506 1.506z"></path>
<path fill="none" stroke="#1f2024" style="stroke: var(--color2, #1f2024)" stroke-linejoin="miter" stroke-linecap="butt" stroke-miterlimit="4" stroke-width="0.7529" d="M58.259 15.718c0 0.832-0.674 1.506-1.506 1.506s-1.506-0.674-1.506-1.506c0-0.832 0.674-1.506 1.506-1.506s1.506 0.674 1.506 1.506z"></path>
<path fill="#8a7dd8" style="fill: var(--color1, #8a7dd8)" d="M53.271 20.329c0-0.416 0.337-0.753 0.753-0.753h5.365c0.416 0 0.753 0.337 0.753 0.753v2.353c0 0.416-0.337 0.753-0.753 0.753h-5.365c-0.416 0-0.753-0.337-0.753-0.753v-2.353z"></path>
<path fill="none" stroke="#1f2024" style="stroke: var(--color2, #1f2024)" stroke-linejoin="miter" stroke-linecap="butt" stroke-miterlimit="4" stroke-width="0.7529" d="M53.271 20.329c0-0.416 0.337-0.753 0.753-0.753h5.365c0.416 0 0.753 0.337 0.753 0.753v2.353c0 0.416-0.337 0.753-0.753 0.753h-5.365c-0.416 0-0.753-0.337-0.753-0.753v-2.353z"></path>
<path fill="#aea5ee" style="fill: var(--color3, #aea5ee)" d="M57.788 20.329c0-0.416 0.337-0.753 0.753-0.753h0.808c0.416 0 0.753 0.337 0.753 0.753v2.353c0 0.416-0.337 0.753-0.753 0.753h-0.808c-0.416 0-0.753-0.337-0.753-0.753v-2.353z"></path>
<path fill="none" stroke="#1f2024" style="stroke: var(--color2, #1f2024)" stroke-linejoin="miter" stroke-linecap="butt" stroke-miterlimit="4" stroke-width="0.7529" d="M57.788 20.329c0-0.416 0.337-0.753 0.753-0.753h0.808c0.416 0 0.753 0.337 0.753 0.753v2.353c0 0.416-0.337 0.753-0.753 0.753h-0.808c-0.416 0-0.753-0.337-0.753-0.753v-2.353z"></path>
<path fill="#4a4a4e" style="fill: var(--color17, #4a4a4e); stroke: var(--color2, #1f2024)" stroke="#1f2024" stroke-linejoin="miter" stroke-linecap="butt" stroke-miterlimit="4" stroke-width="0.7529" d="M78.118 21.647c0.624 0 1.141 0.508 1.065 1.127-0.315 2.579-1.888 4.52-6.712 4.52s-6.397-1.941-6.712-4.52c-0.076-0.619 0.442-1.127 1.065-1.127h11.294z"></path>
<path fill="#ff55a2" style="fill: var(--color18, #ff55a2); stroke: var(--color2, #1f2024)" stroke="#1f2024" stroke-linejoin="miter" stroke-linecap="butt" stroke-miterlimit="4" stroke-width="0.7529" d="M77.2 26.227c-1.036 0.671-2.551 1.067-4.729 1.067-4.372 0-6.073-1.594-6.589-3.812 2.001-0.918 9.13 0 11.318 2.745z"></path>
<path fill="#fff" style="fill: var(--color4, #fff); stroke: var(--color2, #1f2024)" stroke="#1f2024" stroke-linejoin="miter" stroke-linecap="butt" stroke-miterlimit="4" stroke-width="0.7529" d="M68.518 22.071c0-0.234 0.19-0.424 0.424-0.424h2.541c0.234 0 0.424 0.19 0.424 0.424v1.271c0 0.624-0.506 1.129-1.129 1.129h-1.129c-0.624 0-1.129-0.506-1.129-1.129v-1.271z"></path>
<path fill="#fff" style="fill: var(--color4, #fff); stroke: var(--color2, #1f2024)" stroke="#1f2024" stroke-linejoin="miter" stroke-linecap="butt" stroke-miterlimit="4" stroke-width="0.7529" d="M71.906 22.071c0-0.234 0.19-0.424 0.424-0.424h2.541c0.234 0 0.424 0.19 0.424 0.424v1.271c0 0.624-0.506 1.129-1.129 1.129h-1.129c-0.624 0-1.129-0.506-1.129-1.129v-1.271z"></path>
<path fill="#fff7b4" style="fill: var(--color19, #fff7b4); stroke: var(--color2, #1f2024)" opacity="0.5" stroke="#1f2024" stroke-linejoin="miter" stroke-linecap="butt" stroke-miterlimit="4" stroke-width="0.7529" d="M63.624 4.894c0-2.287 1.854-4.141 4.141-4.141s4.141 1.854 4.141 4.141v3.953h-8.282v-3.953z"></path>
<path fill="#aea5ee" style="fill: var(--color3, #aea5ee)" d="M62.494 9.6c0-0.416 0.337-0.753 0.753-0.753h9.035c0.416 0 0.753 0.337 0.753 0.753v0.376h-10.541v-0.376z"></path>
<path fill="none" stroke="#1f2024" style="stroke: var(--color2, #1f2024)" stroke-linejoin="miter" stroke-linecap="butt" stroke-miterlimit="4" stroke-width="0.7529" d="M62.494 9.6c0-0.416 0.337-0.753 0.753-0.753h9.035c0.416 0 0.753 0.337 0.753 0.753v0.376h-10.541v-0.376z"></path>
<path fill="none" stroke="#f2c95c" style="stroke: var(--color8, #f2c95c)" stroke-linejoin="miter" stroke-linecap="butt" stroke-miterlimit="4" stroke-width="0.7529" d="M68.518 8.471v-3.294h-1.506v3.294"></path>
<path fill="none" stroke="#f2c95c" style="stroke: var(--color8, #f2c95c)" stroke-linejoin="miter" stroke-linecap="butt" stroke-miterlimit="4" stroke-width="0.7529" d="M65.506 4.424c0-0.416 0.337-0.753 0.753-0.753v0c0.416 0 0.753 0.337 0.753 0.753v0.753h-0.753c-0.416 0-0.753-0.337-0.753-0.753v0z"></path>
<path fill="none" stroke="#f2c95c" style="stroke: var(--color8, #f2c95c)" stroke-linejoin="miter" stroke-linecap="butt" stroke-miterlimit="4" stroke-width="0.7529" d="M68.518 4.424c0-0.416 0.337-0.753 0.753-0.753v0c0.416 0 0.753 0.337 0.753 0.753v0c0 0.416-0.337 0.753-0.753 0.753h-0.753v-0.753z"></path>
<path fill="none" stroke="#fff" style="stroke: var(--color4, #fff)" stroke-linejoin="miter" stroke-linecap="round" stroke-miterlimit="4" stroke-width="0.7529" d="M67.765 1.882c1.663 0 3.012 1.348 3.012 3.012"></path>
<path fill="#cae9fa" style="fill: var(--color5, #cae9fa)" d="M67.405 25.66c-0.411 1.628-2.053 2.612-3.669 2.199s-2.593-2.067-2.183-3.696 3.826-5.296 4.412-5.147c0.586 0.15 1.851 5.016 1.441 6.644zM77.819 25.66c0.411 1.628 2.053 2.612 3.669 2.199s2.594-2.067 2.183-3.696-3.827-5.296-4.412-5.147c-0.584 0.15-1.85 5.016-1.44 6.644z"></path>
<path fill="none" stroke="#1f2024" style="stroke: var(--color2, #1f2024)" stroke-linejoin="miter" stroke-linecap="butt" stroke-miterlimit="4" stroke-width="0.7529" d="M63.829 27.494h-0c-1.413-0.361-2.271-1.809-1.911-3.239 0.085-0.34 0.344-0.829 0.726-1.393 0.376-0.554 0.849-1.148 1.33-1.689s0.964-1.024 1.356-1.358c0.197-0.168 0.362-0.29 0.486-0.364 0.016-0.010 0.031-0.018 0.045-0.025 0.009 0.013 0.018 0.028 0.028 0.045 0.074 0.125 0.161 0.311 0.255 0.554 0.186 0.482 0.382 1.137 0.549 1.845s0.301 1.457 0.369 2.124c0.069 0.68 0.065 1.234-0.021 1.573-0.36 1.428-1.799 2.287-3.211 1.926zM65.801 19.349c-0.002-0.002-0.003-0.003-0.003-0.003s0.001 0.001 0.003 0.003zM65.952 19.386c-0 0-0.001 0-0.004 0.001 0.003-0.001 0.004-0.001 0.004-0.001zM81.395 27.494h-0c-1.412 0.361-2.851-0.498-3.211-1.926-0.086-0.34-0.090-0.894-0.021-1.573 0.068-0.668 0.203-1.417 0.369-2.124s0.362-1.364 0.548-1.846c0.094-0.242 0.181-0.429 0.255-0.554 0.010-0.017 0.019-0.031 0.028-0.045 0.013 0.007 0.028 0.016 0.044 0.025 0.124 0.074 0.289 0.196 0.486 0.364 0.392 0.334 0.874 0.816 1.356 1.358s0.954 1.135 1.33 1.689c0.383 0.564 0.641 1.053 0.727 1.393 0.36 1.429-0.498 2.878-1.911 3.239zM79.425 19.346c0 0-0.001 0.001-0.003 0.003 0.002-0.002 0.003-0.003 0.003-0.003zM79.27 19.386c0-0 0.001 0 0.004 0.001-0.003-0-0.004-0.001-0.004-0.001z"></path>
<path fill="#fff" style="fill: var(--color4, #fff)" d="M66.353 25.224c0 0.364-0.295 0.659-0.659 0.659s-0.659-0.295-0.659-0.659c0-0.364 0.295-0.659 0.659-0.659s0.659 0.295 0.659 0.659z"></path>
<path fill="#fff" style="fill: var(--color4, #fff)" d="M82.447 25.224c0 0.364-0.295 0.659-0.659 0.659s-0.659-0.295-0.659-0.659c0-0.364 0.295-0.659 0.659-0.659s0.659 0.295 0.659 0.659z"></path>
<path fill="none" stroke="#1f2024" style="stroke: var(--color2, #1f2024)" stroke-linejoin="miter" stroke-linecap="round" stroke-miterlimit="4" stroke-width="1.1294" d="M70.076 13.985c-1.694-1.318-5.365 0.518-5.694 2.918"></path>
<path fill="none" stroke="#1f2024" style="stroke: var(--color2, #1f2024)" stroke-linejoin="miter" stroke-linecap="round" stroke-miterlimit="4" stroke-width="1.1294" d="M75.353 13.985c1.694-1.318 5.365 0.518 5.694 2.918"></path>
<path fill="#e22c2c" style="fill: var(--color20, #e22c2c)" d="M26.635 12.235c0-1.248 1.011-2.259 2.259-2.259h18.071c1.248 0 2.259 1.011 2.259 2.259v15.059c0 1.248-1.011 2.259-2.259 2.259h-18.071c-1.248 0-2.259-1.011-2.259-2.259v-15.059z"></path>
<path fill="none" stroke="#1f2024" style="stroke: var(--color2, #1f2024)" stroke-linejoin="miter" stroke-linecap="butt" stroke-miterlimit="4" stroke-width="0.7529" d="M26.635 12.235c0-1.248 1.011-2.259 2.259-2.259h18.071c1.248 0 2.259 1.011 2.259 2.259v15.059c0 1.248-1.011 2.259-2.259 2.259h-18.071c-1.248 0-2.259-1.011-2.259-2.259v-15.059z"></path>
<path fill="#ff5252" style="fill: var(--color21, #ff5252)" d="M36.047 12.235c0-1.248 1.011-2.259 2.259-2.259h16.565c1.248 0 2.259 1.011 2.259 2.259v15.059c0 1.248-1.011 2.259-2.259 2.259h-16.565c-1.248 0-2.259-1.011-2.259-2.259v-15.059z"></path>
<path fill="none" stroke="#1f2024" style="stroke: var(--color2, #1f2024)" stroke-linejoin="miter" stroke-linecap="butt" stroke-miterlimit="4" stroke-width="0.7529" d="M36.047 12.235c0-1.248 1.011-2.259 2.259-2.259h16.565c1.248 0 2.259 1.011 2.259 2.259v15.059c0 1.248-1.011 2.259-2.259 2.259h-16.565c-1.248 0-2.259-1.011-2.259-2.259v-15.059z"></path>
<path fill="#fff" style="fill: var(--color4, #fff)" opacity="0.5" d="M48.094 10.353h3.576l-5.271 18.824h-3.576l5.271-18.824z"></path>
<path fill="#fff" style="fill: var(--color4, #fff)" opacity="0.5" d="M46.682 10.353h0.565l-5.271 18.824h-0.565l5.271-18.824z"></path>
<path fill="none" stroke="#1f2024" style="stroke: var(--color2, #1f2024)" stroke-linejoin="miter" stroke-linecap="round" stroke-miterlimit="4" stroke-width="1.1785" d="M38.541 16.934l7.947 1.71"></path>
<path fill="#fff" style="fill: var(--color4, #fff); stroke: var(--color2, #1f2024)" stroke="#1f2024" stroke-linejoin="miter" stroke-linecap="butt" stroke-miterlimit="4" stroke-width="0.7857" d="M45.005 18.395c-0.057 0.263-0.165 0.512-0.317 0.734s-0.348 0.41-0.574 0.556c-0.226 0.146-0.479 0.246-0.743 0.294s-0.536 0.044-0.8-0.012c-0.263-0.057-0.512-0.165-0.734-0.318s-0.41-0.348-0.556-0.574c-0.146-0.226-0.246-0.479-0.294-0.743s-0.044-0.536 0.012-0.799l4.007 0.862z"></path>
<path fill="#1f2024" style="fill: var(--color2, #1f2024)" d="M37.176 21.896v-1.614l4.795-0.922v0.749l-0.347 0.173 0.462 0.115-0.116 0.749-3.524 0.865-0.751-0.288-0.52 0.173z"></path>
<path fill="none" stroke="#1f2024" style="stroke: var(--color2, #1f2024)" stroke-linejoin="miter" stroke-linecap="round" stroke-miterlimit="4" stroke-width="1.1785" d="M56.043 16.934l-7.947 1.71"></path>
<path fill="#fff" style="fill: var(--color4, #fff); stroke: var(--color2, #1f2024)" stroke="#1f2024" stroke-linejoin="miter" stroke-linecap="butt" stroke-miterlimit="4" stroke-width="0.7857" d="M49.58 18.395c0.057 0.263 0.165 0.512 0.318 0.734s0.348 0.41 0.574 0.556c0.226 0.146 0.479 0.246 0.743 0.294s0.536 0.044 0.799-0.012c0.263-0.057 0.512-0.165 0.734-0.318s0.411-0.348 0.557-0.574 0.246-0.479 0.294-0.743c0.048-0.265 0.044-0.536-0.013-0.799l-4.007 0.862z"></path>
<path fill="#1f2024" style="fill: var(--color2, #1f2024)" d="M57.408 21.896v-1.614l-4.795-0.922v0.749l0.347 0.173-0.462 0.115 0.115 0.749 3.524 0.865 0.751-0.288 0.52 0.173z"></path>
<path fill="none" stroke="#1f2024" style="stroke: var(--color2, #1f2024)" stroke-linejoin="round" stroke-linecap="round" stroke-miterlimit="4" stroke-width="0.7529" d="M29.553 16.188l-0.458 1.553M33.060 22.475l-1.407-3.071-2.728-0.533 0.17-1.129M33.060 22.475l-0.683 1.337M33.060 22.475h2.046M29.095 17.742h-1.236"></path>
<path fill="#b3a275" style="fill: var(--color22, #b3a275); stroke: var(--color2, #1f2024)" stroke="#1f2024" stroke-linejoin="miter" stroke-linecap="butt" stroke-miterlimit="4" stroke-width="0.7529" d="M27.955 21.402l4.792-4.792c0.588-0.588 1.542-0.588 2.13 0s0.588 1.542 0 2.13l-4.792 4.792c-0.588 0.588-1.542 0.588-2.13 0s-0.588-1.542 0-2.13z"></path>
<path fill="#e5deb1" style="fill: var(--color23, #e5deb1); stroke: var(--color2, #1f2024)" stroke="#1f2024" stroke-linejoin="miter" stroke-linecap="butt" stroke-miterlimit="4" stroke-width="0.7529" d="M29.352 19.871l1.863-1.863c0.073-0.073 0.193-0.073 0.266 0l1.997 1.997c0.074 0.073 0.074 0.193 0 0.266l-1.863 1.863c-0.073 0.073-0.193 0.073-0.266 0l-1.997-1.997c-0.073-0.073-0.073-0.193 0-0.266z"></path>
<path fill="#9a855a" style="fill: var(--color24, #9a855a)" d="M32.813 17.875c0.074 0.073 0.074 0.193 0 0.266s-0.193 0.073-0.266 0c-0.074-0.073-0.074-0.193 0-0.266s0.193-0.073 0.266 0z"></path>
<path fill="#9a855a" style="fill: var(--color24, #9a855a)" d="M28.687 22.001c0.073 0.073 0.073 0.193 0 0.266s-0.193 0.073-0.266 0c-0.073-0.073-0.073-0.193 0-0.266s0.193-0.073 0.266 0z"></path>
<path fill="#9a855a" style="fill: var(--color24, #9a855a)" d="M33.612 18.673c0.074 0.073 0.074 0.193 0 0.266s-0.193 0.073-0.266 0c-0.074-0.073-0.074-0.193 0-0.266s0.193-0.073 0.266 0z"></path>
<path fill="#9a855a" style="fill: var(--color24, #9a855a)" d="M29.486 22.799c0.073 0.073 0.073 0.193 0 0.266s-0.193 0.073-0.266 0c-0.073-0.073-0.073-0.193 0-0.266s0.193-0.073 0.266 0z"></path>
<path fill="#9a855a" style="fill: var(--color24, #9a855a)" d="M33.612 17.875c0.074 0.073 0.074 0.193 0 0.266s-0.193 0.073-0.266 0c-0.074-0.073-0.074-0.193 0-0.266s0.193-0.073 0.266 0z"></path>
<path fill="#9a855a" style="fill: var(--color24, #9a855a)" d="M29.486 22.001c0.073 0.073 0.073 0.193 0 0.266s-0.193 0.073-0.266 0c-0.073-0.073-0.073-0.193 0-0.266s0.193-0.073 0.266 0z"></path>
<path fill="#9a855a" style="fill: var(--color24, #9a855a)" d="M34.41 17.076c0.074 0.073 0.074 0.193 0 0.266s-0.193 0.073-0.266 0c-0.074-0.073-0.074-0.193 0-0.266s0.193-0.073 0.266 0z"></path>
<path fill="#9a855a" style="fill: var(--color24, #9a855a)" d="M28.687 22.799c0.073 0.073 0.073 0.193 0 0.266s-0.193 0.073-0.266 0c-0.073-0.073-0.073-0.193 0-0.266s0.193-0.073 0.266 0z"></path>
<path fill="#9a855a" style="fill: var(--color24, #9a855a)" d="M33.612 17.076c0.074 0.073 0.074 0.193 0 0.266s-0.193 0.073-0.266 0c-0.074-0.073-0.074-0.193 0-0.266s0.193-0.073 0.266 0z"></path>
<path fill="#9a855a" style="fill: var(--color24, #9a855a)" d="M29.486 21.202c0.073 0.073 0.073 0.193 0 0.266s-0.193 0.073-0.266 0c-0.073-0.073-0.073-0.193 0-0.266s0.193-0.073 0.266 0z"></path>
<path fill="#9a855a" style="fill: var(--color24, #9a855a)" d="M34.41 17.875c0.074 0.073 0.074 0.193 0 0.266s-0.193 0.073-0.266 0c-0.074-0.073-0.074-0.193 0-0.266s0.193-0.073 0.266 0z"></path>
<path fill="#9a855a" style="fill: var(--color24, #9a855a)" d="M30.284 22.001c0.073 0.073 0.073 0.193 0 0.266s-0.193 0.073-0.266 0c-0.073-0.073-0.073-0.193 0-0.266s0.193-0.073 0.266 0z"></path>
<path fill="#1f2024" style="fill: var(--color2, #1f2024)" d="M43.2 21.741h7.529c0.832 0 1.506 0.674 1.506 1.506s-0.674 1.506-1.506 1.506h-7.529c-0.832 0-1.506-0.674-1.506-1.506s0.674-1.506 1.506-1.506z"></path>
<path fill="#fff" style="fill: var(--color4, #fff)" d="M41.694 21.741h1.129v3.012h-1.129v-3.012z"></path>
<path fill="#fff" style="fill: var(--color4, #fff)" d="M43.576 21.741h1.129v3.012h-1.129v-3.012z"></path>
<path fill="#fff" style="fill: var(--color4, #fff)" d="M45.459 21.741h1.129v3.012h-1.129v-3.012z"></path>
<path fill="#fff" style="fill: var(--color4, #fff)" d="M47.341 21.741h1.129v3.012h-1.129v-3.012z"></path>
<path fill="#fff" style="fill: var(--color4, #fff)" d="M49.224 21.741h1.129v3.012h-1.129v-3.012z"></path>
<path fill="#fff" style="fill: var(--color4, #fff)" d="M51.106 21.741h1.129v3.012h-1.129v-3.012z"></path>
<path fill="#fe204f" style="fill: var(--color6, #fe204f)" d="M37.107 3.663h1.943v0.809h-1.943v-0.809z"></path>
<path fill="#eb0d18" style="fill: var(--color10, #eb0d18)" d="M43.831 0.921l0.156 0.759 0.303-0.802c0.408-0.032 0.82-0.048 1.234-0.048l-1.943 9.146h-10.037c0.083-0.453 0.189-0.889 0.315-1.308l0.819-0.31-0.622-0.285c0.65-1.802 1.697-3.262 3.014-4.387l1.007 1.070-0.096-1.767c1.682-1.148 3.699-1.834 5.849-2.068z"></path>
<path fill="#fff" style="fill: var(--color4, #fff)" opacity="0.3" d="M37.107 9.653c0.202-4.654 4.776-1.74 3.521-8.016l2.104-0.483c1.497 2.712-4.533 5.383-3.48 8.499h-2.145z"></path>
<path fill="#fe204f" style="fill: var(--color6, #fe204f)" d="M49.005 0.83h-3.48l-1.943 9.146h3.48l0.776-3.655-0.817 0.053 0.967-0.76 1.016-4.785z"></path>
<path fill="#1f2024" style="fill: var(--color2, #1f2024)" d="M45.525 0.83v-0.324c-0.153 0-0.285 0.107-0.317 0.256l0.317 0.067zM49.005 0.83l0.317 0.067c0.020-0.096-0.004-0.195-0.065-0.271s-0.154-0.12-0.252-0.12v0.324zM43.582 9.976l-0.317-0.067c-0.020 0.096 0.004 0.195 0.065 0.271s0.154 0.12 0.252 0.12v-0.324zM47.063 9.976v0.324c0.153 0 0.285-0.107 0.317-0.256l-0.317-0.067zM47.839 6.322l0.317 0.067c0.021-0.099-0.006-0.202-0.072-0.279s-0.165-0.118-0.266-0.111l0.021 0.323zM47.022 6.375l-0.2-0.255c-0.112 0.088-0.153 0.238-0.102 0.37s0.182 0.217 0.323 0.207l-0.021-0.323zM47.989 5.615l0.2 0.255c0.060-0.047 0.101-0.113 0.117-0.187l-0.317-0.067zM45.525 1.154h3.48v-0.648h-3.48v0.648zM43.899 10.044l1.943-9.146-0.633-0.135-1.943 9.146 0.633 0.135zM47.063 9.653h-3.48v0.648h3.48v-0.648zM47.522 6.255l-0.776 3.655 0.633 0.135 0.776-3.655-0.633-0.135zM47.818 5.999l-0.817 0.053 0.042 0.646 0.817-0.053-0.042-0.646zM47.222 6.629l0.967-0.76-0.4-0.509-0.967 0.76 0.4 0.509zM48.688 0.763l-1.016 4.785 0.633 0.135 1.016-4.785-0.633-0.135z"></path>
<path fill="#1f2024" style="fill: var(--color2, #1f2024)" d="M43.987 1.68l-0.317 0.065c0.029 0.141 0.148 0.246 0.291 0.257s0.278-0.073 0.328-0.208l-0.303-0.115zM43.831 0.921l0.317-0.065c-0.034-0.164-0.186-0.275-0.352-0.257l0.035 0.322zM44.29 0.878l-0.025-0.323c-0.125 0.010-0.233 0.091-0.278 0.208l0.303 0.115zM45.525 0.83l0.317 0.067c0.020-0.096-0.004-0.195-0.065-0.271s-0.154-0.12-0.252-0.12v0.324zM43.582 9.976v0.324c0.153 0 0.285-0.107 0.317-0.256l-0.317-0.067zM33.545 9.976l-0.318-0.059c-0.017 0.095 0.008 0.192 0.070 0.266s0.153 0.117 0.249 0.117v-0.324zM33.86 8.668l-0.115-0.303c-0.094 0.036-0.166 0.113-0.195 0.21l0.31 0.093zM34.679 8.358l0.115 0.303c0.122-0.046 0.204-0.161 0.209-0.292s-0.070-0.251-0.189-0.305l-0.135 0.294zM34.057 8.073l-0.305-0.11c-0.057 0.158 0.017 0.334 0.17 0.404l0.135-0.294zM37.071 3.685l0.236-0.222c-0.118-0.126-0.315-0.136-0.446-0.024l0.21 0.246zM38.078 4.756l-0.236 0.222c0.093 0.099 0.238 0.129 0.363 0.076s0.203-0.179 0.196-0.315l-0.323 0.018zM37.982 2.989l-0.182-0.267c-0.094 0.064-0.147 0.172-0.141 0.285l0.323-0.018zM44.304 1.615l-0.156-0.759-0.634 0.131 0.156 0.759 0.634-0.131zM43.987 0.763l-0.303 0.802 0.606 0.229 0.304-0.802-0.606-0.229zM44.316 1.201c0.399-0.031 0.803-0.047 1.209-0.047v-0.648c-0.423 0-0.843 0.016-1.26 0.049l0.051 0.646zM45.208 0.763l-1.943 9.146 0.633 0.135 1.943-9.146-0.633-0.135zM43.582 9.653h-10.037v0.648h10.037v-0.648zM33.864 10.035c0.081-0.442 0.184-0.866 0.306-1.274l-0.62-0.186c-0.129 0.431-0.237 0.878-0.323 1.343l0.637 0.117zM33.975 8.971l0.819-0.31-0.23-0.605-0.819 0.31 0.23 0.605zM34.813 8.063l-0.622-0.285-0.27 0.589 0.622 0.285 0.27-0.589zM34.361 8.182c0.631-1.748 1.645-3.162 2.92-4.251l-0.42-0.492c-1.36 1.161-2.439 2.668-3.108 4.524l0.609 0.22zM36.835 3.907l1.007 1.070 0.472-0.444-1.007-1.070-0.472 0.444zM38.401 4.738l-0.096-1.766-0.647 0.035 0.096 1.767 0.647-0.035zM38.164 3.257c1.632-1.114 3.597-1.785 5.701-2.014l-0.070-0.644c-2.195 0.239-4.265 0.941-5.996 2.123l0.365 0.535z"></path>
<path fill="#cae9fa" style="fill: var(--color5, #cae9fa); stroke: var(--color2, #1f2024)" stroke="#1f2024" stroke-linejoin="miter" stroke-linecap="butt" stroke-miterlimit="4" stroke-width="0.7529" d="M30.75 30.178c0.021 0.012 0.039 0.023 0.055 0.034-0.016 0.010-0.034 0.021-0.055 0.034-0.163 0.093-0.429 0.196-0.805 0.3-0.746 0.206-1.844 0.396-3.221 0.557-2.749 0.321-6.557 0.521-10.771 0.521s-8.022-0.2-10.771-0.521c-1.377-0.161-2.475-0.351-3.221-0.557-0.376-0.104-0.641-0.206-0.805-0.3-0.021-0.012-0.039-0.023-0.055-0.034 0.016-0.010 0.034-0.021 0.055-0.034 0.163-0.093 0.429-0.196 0.805-0.3 0.746-0.206 1.844-0.396 3.221-0.557 2.749-0.321 6.557-0.521 10.771-0.521s8.022 0.2 10.771 0.521c1.377 0.161 2.475 0.351 3.221 0.557 0.376 0.104 0.641 0.206 0.805 0.3z"></path>
<path fill="#8a7dd8" style="fill: var(--color1, #8a7dd8)" d="M0.753 12.235c0-1.248 1.011-2.259 2.259-2.259h18.071c1.248 0 2.259 1.011 2.259 2.259v15.059c0 1.248-1.011 2.259-2.259 2.259h-18.071c-1.248 0-2.259-1.011-2.259-2.259v-15.059z"></path>
<path fill="none" stroke="#1f2024" style="stroke: var(--color2, #1f2024)" stroke-linejoin="miter" stroke-linecap="butt" stroke-miterlimit="4" stroke-width="0.7529" d="M0.753 12.235c0-1.248 1.011-2.259 2.259-2.259h18.071c1.248 0 2.259 1.011 2.259 2.259v15.059c0 1.248-1.011 2.259-2.259 2.259h-18.071c-1.248 0-2.259-1.011-2.259-2.259v-15.059z"></path>
<path fill="#aea5ee" style="fill: var(--color3, #aea5ee)" d="M10.165 12.235c0-1.248 1.011-2.259 2.259-2.259h16.565c1.248 0 2.259 1.011 2.259 2.259v15.059c0 1.248-1.011 2.259-2.259 2.259h-16.565c-1.248 0-2.259-1.011-2.259-2.259v-15.059z"></path>
<path fill="none" stroke="#1f2024" style="stroke: var(--color2, #1f2024)" stroke-linejoin="miter" stroke-linecap="butt" stroke-miterlimit="4" stroke-width="0.7529" d="M10.165 12.235c0-1.248 1.011-2.259 2.259-2.259h16.565c1.248 0 2.259 1.011 2.259 2.259v15.059c0 1.248-1.011 2.259-2.259 2.259h-16.565c-1.248 0-2.259-1.011-2.259-2.259v-15.059z"></path>
<path fill="#fff" style="fill: var(--color4, #fff)" opacity="0.5" d="M22.212 10.353h3.576l-5.271 18.824h-3.576l5.271-18.824z"></path>
<path fill="#fff" style="fill: var(--color4, #fff)" opacity="0.5" d="M20.8 10.353h0.565l-5.271 18.824h-0.565l5.271-18.824z"></path>
<path fill="#1f2024" style="fill: var(--color2, #1f2024)" d="M23.576 26.918c0.598 0 1.089-0.486 1.025-1.081-0.302-2.811-1.763-4.943-3.519-4.943s-3.217 2.132-3.519 4.943c-0.064 0.594 0.427 1.081 1.025 1.081h4.988z"></path>
<path fill="#ff3979" style="fill: var(--color25, #ff3979)" d="M23.341 26.918c0-1.144-1.096-2.071-2.447-2.071s-2.447 0.927-2.447 2.071h4.894z"></path>
<path fill="none" stroke="#1f2024" style="stroke: var(--color2, #1f2024)" stroke-linejoin="miter" stroke-linecap="round" stroke-miterlimit="4" stroke-width="1.1294" d="M28.946 15.906c-1.694 1.318-5.365-0.518-5.694-2.918"></path>
<path fill="none" stroke="#1f2024" style="stroke: var(--color2, #1f2024)" stroke-linejoin="miter" stroke-linecap="round" stroke-miterlimit="4" stroke-width="1.1294" d="M12.388 15.906c1.694 1.318 5.365-0.518 5.694-2.918"></path>
<path fill="#1f2024" style="fill: var(--color2, #1f2024)" opacity="0.16" d="M8.094 21.082c0 1.871-1.517 3.388-3.388 3.388s-3.388-1.517-3.388-3.388c0-1.871 1.517-3.388 3.388-3.388s3.388 1.517 3.388 3.388z"></path>
<path fill="#aea5ee" style="fill: var(--color3, #aea5ee)" d="M8 20.047c0 1.871-1.517 3.388-3.388 3.388s-3.388-1.517-3.388-3.388c0-1.871 1.517-3.388 3.388-3.388s3.388 1.517 3.388 3.388z"></path>
<path fill="none" stroke="#1f2024" style="stroke: var(--color2, #1f2024)" stroke-linejoin="miter" stroke-linecap="butt" stroke-miterlimit="4" stroke-width="0.7529" d="M8 20.047c0 1.871-1.517 3.388-3.388 3.388s-3.388-1.517-3.388-3.388c0-1.871 1.517-3.388 3.388-3.388s3.388 1.517 3.388 3.388z"></path>
<path fill="none" stroke="#fff" style="stroke: var(--color4, #fff)" stroke-linejoin="round" stroke-linecap="round" stroke-miterlimit="4" stroke-width="0.7529" d="M5.553 17.788c0.343 0.182 0.636 0.478 0.847 0.847"></path>
<path fill="#cae9fa" style="fill: var(--color5, #cae9fa)" d="M4.988 20.047c0 1.247-1.011 2.259-2.259 2.259s-2.259-1.011-2.259-2.259c0-1.247 1.011-2.259 2.259-2.259s2.259 1.011 2.259 2.259z"></path>
<path fill="none" stroke="#1f2024" style="stroke: var(--color2, #1f2024)" stroke-linejoin="miter" stroke-linecap="butt" stroke-miterlimit="4" stroke-width="0.7529" d="M4.988 20.047c0 1.247-1.011 2.259-2.259 2.259s-2.259-1.011-2.259-2.259c0-1.247 1.011-2.259 2.259-2.259s2.259 1.011 2.259 2.259z"></path>
<path fill="#aea5ee" style="fill: var(--color3, #aea5ee); stroke: var(--color2, #1f2024)" stroke="#1f2024" stroke-linejoin="miter" stroke-linecap="butt" stroke-miterlimit="4" stroke-width="0.7529" d="M15.906 5.365h0.188v3.482h-0.188v-3.482z"></path>
<path fill="#fff" style="fill: var(--color4, #fff)" d="M17.129 5.271c0 0.624-0.506 1.129-1.129 1.129s-1.129-0.506-1.129-1.129c0-0.624 0.506-1.129 1.129-1.129s1.129 0.506 1.129 1.129z"></path>
<path fill="#fff" style="fill: var(--color4, #fff); stroke: var(--color2, #1f2024)" opacity="0.5" stroke="#1f2024" stroke-linejoin="miter" stroke-linecap="butt" stroke-miterlimit="4" stroke-width="0.7529" d="M11.859 6.212c0-2.287 1.854-4.141 4.141-4.141s4.141 1.854 4.141 4.141v2.635h-8.282v-2.635z"></path>
<path fill="#aea5ee" style="fill: var(--color3, #aea5ee)" d="M10.729 9.6c0-0.416 0.337-0.753 0.753-0.753h9.035c0.416 0 0.753 0.337 0.753 0.753v0.376h-10.541v-0.376z"></path>
<path fill="none" stroke="#1f2024" style="stroke: var(--color2, #1f2024)" stroke-linejoin="miter" stroke-linecap="butt" stroke-miterlimit="4" stroke-width="0.7529" d="M10.729 9.6c0-0.416 0.337-0.753 0.753-0.753h9.035c0.416 0 0.753 0.337 0.753 0.753v0.376h-10.541v-0.376z"></path>
<path fill="#cae9fa" style="fill: var(--color5, #cae9fa); stroke: var(--color2, #1f2024)" stroke="#1f2024" stroke-linejoin="miter" stroke-linecap="butt" stroke-miterlimit="4" stroke-width="0.7529" d="M13.835 19.2c0-0.624 0.506-1.129 1.129-1.129h0.753c0.624 0 1.129 0.506 1.129 1.129v9.976h-3.012v-9.976z"></path>
<path fill="#cae9fa" style="fill: var(--color5, #cae9fa); stroke: var(--color2, #1f2024)" stroke="#1f2024" stroke-linejoin="miter" stroke-linecap="butt" stroke-miterlimit="4" stroke-width="0.7529" d="M25.035 19.2c0-0.624 0.506-1.129 1.129-1.129h0.753c0.624 0 1.129 0.506 1.129 1.129v9.694h-3.012v-9.694z"></path>
<path fill="none" stroke="#1f2024" style="stroke: var(--color2, #1f2024)" stroke-linejoin="miter" stroke-linecap="round" stroke-miterlimit="4" stroke-width="0.9412" d="M17.6 19.106c-0.847-1.553-3.812-1.506-4.518 0"></path>
<path fill="none" stroke="#1f2024" style="stroke: var(--color2, #1f2024)" stroke-linejoin="miter" stroke-linecap="round" stroke-miterlimit="4" stroke-width="0.9412" d="M28.8 19.106c-0.847-1.553-3.812-1.506-4.518 0"></path>
<path fill="#cae9fa" style="fill: var(--color5, #cae9fa)" d="M14.212 28.047h2.259v2.541h-2.259v-2.541z"></path>
<path fill="#cae9fa" style="fill: var(--color5, #cae9fa)" d="M25.412 28.047h2.259v2.541h-2.259v-2.541z"></path>
</symbol>
<symbol id="icon-magic" viewBox="0 0 32 32">
<path d="M17.538 12.115c0 0-0.001 0-0.001 0.001s-0.001 0.001-0.001 0.001l-17.485 17.485 2.399 2.398 22.808-22.809-2.398-2.398-5.323 5.323zM2.45 30.401l-0.799-0.8 16.286-16.286 0.799 0.799-16.286 16.287zM19.537 13.315l-0.799-0.799 4.124-4.124 0.799 0.799-4.124 4.124z"></path>
<path d="M22.902 5.089c0.312 0 0.565-0.253 0.565-0.565v-3.958c0-0.313-0.253-0.565-0.565-0.565s-0.565 0.253-0.565 0.565v3.958c0 0.313 0.253 0.565 0.565 0.565z"></path>
<path d="M22.902 13.004c-0.312 0-0.565 0.253-0.565 0.565v3.958c0 0.313 0.253 0.565 0.565 0.565s0.565-0.253 0.565-0.565v-3.958c0-0.313-0.253-0.565-0.565-0.565z"></path>
<path d="M31.383 8.481h-3.958c-0.312 0-0.565 0.253-0.565 0.565s0.253 0.565 0.565 0.565h3.958c0.312 0 0.565-0.253 0.565-0.565s-0.253-0.565-0.565-0.565z"></path>
<path d="M14.421 9.612h3.958c0.312 0 0.565-0.253 0.565-0.565s-0.253-0.565-0.565-0.565h-3.958c-0.312 0-0.565 0.253-0.565 0.565s0.253 0.565 0.565 0.565z"></path>
<path d="M26.294 6.219c0.145 0 0.289-0.055 0.4-0.166l2.799-2.799c0.221-0.221 0.221-0.578 0-0.799s-0.578-0.221-0.799 0l-2.799 2.799c-0.221 0.221-0.221 0.578 0 0.799 0.11 0.11 0.255 0.166 0.4 0.166z"></path>
<path d="M26.694 12.039c-0.221-0.221-0.578-0.221-0.799 0s-0.221 0.578 0 0.799l2.799 2.799c0.11 0.11 0.255 0.166 0.4 0.166s0.289-0.055 0.4-0.166c0.221-0.221 0.221-0.578 0-0.799l-2.799-2.799z"></path>
<path d="M19.11 6.054c0.11 0.11 0.255 0.166 0.4 0.166s0.289-0.055 0.4-0.166c0.221-0.221 0.221-0.578 0-0.799l-2.799-2.799c-0.221-0.221-0.578-0.221-0.799 0s-0.221 0.578 0 0.799l2.799 2.799z"></path>
</symbol>
</defs>
</svg>
