<svg width="1715" height="340" viewBox="0 0 1715 340" fill="none" xmlns="http://www.w3.org/2000/svg">
<g clip-path="url(#clip0_24_668)">
<g filter="url(#filter0_ii_24_668)">
<path d="M1383 130C1383 116.745 1393.75 106 1407 106H1599C1612.25 106 1623 116.745 1623 130V290C1623 303.255 1612.25 314 1599 314H1407C1393.75 314 1383 303.255 1383 290V130Z" fill="#8A7DD8"/>
</g>
<path d="M1383 130C1383 116.745 1393.75 106 1407 106H1599C1612.25 106 1623 116.745 1623 130V290C1623 303.255 1612.25 314 1599 314H1407C1393.75 314 1383 303.255 1383 290V130Z" stroke="#1F2024" stroke-width="8"/>
<g filter="url(#filter1_i_24_668)">
<path d="M1483 130C1483 116.745 1493.75 106 1507 106H1683C1696.25 106 1707 116.745 1707 130V290C1707 303.255 1696.25 314 1683 314H1507C1493.75 314 1483 303.255 1483 290V130Z" fill="#AEA5EE"/>
</g>
<path d="M1483 130C1483 116.745 1493.75 106 1507 106H1683C1696.25 106 1707 116.745 1707 130V290C1707 303.255 1696.25 314 1683 314H1507C1493.75 314 1483 303.255 1483 290V130Z" stroke="#1F2024" stroke-width="8"/>
<path d="M1611 110H1649L1593 310H1555L1611 110Z" fill="white" fill-opacity="0.5"/>
<path d="M1596 110H1602L1546 310H1540L1596 110Z" fill="white" fill-opacity="0.5"/>
<circle cx="1425" cy="224" r="36" fill="#1F2024" fill-opacity="0.16"/>
<g filter="url(#filter2_i_24_668)">
<circle cx="1424" cy="213" r="36" fill="#AEA5EE"/>
</g>
<circle cx="1424" cy="213" r="36" stroke="#1F2024" stroke-width="8"/>
<path d="M1434 189C1437.64 190.938 1440.75 194.074 1443 198" stroke="white" stroke-width="8" stroke-linecap="round" stroke-linejoin="round"/>
<g filter="url(#filter3_i_24_668)">
<circle cx="1404" cy="213" r="24" fill="#CAE9FA"/>
</g>
<circle cx="1404" cy="213" r="24" stroke="#1F2024" stroke-width="8"/>
<path d="M1619 240C1623.42 240 1627.1 243.637 1626.01 247.919C1622.49 261.762 1609.94 272 1595 272C1580.06 272 1567.51 261.762 1563.99 247.919C1562.9 243.637 1566.58 240 1571 240H1619Z" fill="#1F2024"/>
<rect x="1544" y="57" width="2" height="37" fill="#AEA5EE" stroke="#1F2024" stroke-width="8"/>
<circle cx="1545" cy="56" r="12" fill="white"/>
<path d="M1501 66C1501 41.6995 1520.7 22 1545 22C1569.3 22 1589 41.6995 1589 66V94H1501V66Z" fill="white" fill-opacity="0.5" stroke="#1F2024" stroke-width="8"/>
<g filter="url(#filter4_i_24_668)">
<path d="M1489 102C1489 97.5817 1492.58 94 1497 94H1593C1597.42 94 1601 97.5817 1601 102V106H1489V102Z" fill="#AEA5EE"/>
</g>
<path d="M1489 102C1489 97.5817 1492.58 94 1497 94H1593C1597.42 94 1601 97.5817 1601 102V106H1489V102Z" stroke="#1F2024" stroke-width="8"/>
<g filter="url(#filter5_d_24_668)">
<path d="M1542.84 134.621L1542.84 134.621C1534.33 137.775 1528.2 145.041 1525.79 153.698L1524.24 159.272L1519.57 155.855C1512.65 150.783 1503.65 149.166 1495.17 152.312L1542.84 134.621ZM1542.84 134.621C1556.79 129.453 1572.3 137.069 1577.36 152.113C1578.06 154.225 1578.51 156.39 1578.73 158.564L1578.74 158.698L1578.77 158.831C1581.01 171.854 1577.82 187.706 1571.7 202.386C1565.87 216.379 1557.63 228.714 1549.78 235.959C1539.41 235.496 1525.7 231.355 1512.86 224.337C1499.38 216.968 1487.48 206.77 1481.48 195.185L1481.42 195.066M1542.84 134.621L1481.42 195.066M1481.42 195.066L1481.35 194.952M1481.42 195.066L1481.35 194.952M1481.35 194.952C1480.23 193.107 1479.28 191.137 1478.57 189.034C1473.49 173.912 1481.12 157.527 1495.17 152.312L1481.35 194.952ZM1637.46 134.621L1637.47 134.621C1645.98 137.775 1652.11 145.041 1654.53 153.701L1656.08 159.269L1660.74 155.855C1667.67 150.783 1676.67 149.166 1685.15 152.312C1699.19 157.526 1706.82 173.907 1701.75 189.031C1701.03 191.144 1700.09 193.112 1698.97 194.944L1698.9 195.062L1698.84 195.185C1692.83 206.77 1680.94 216.968 1667.46 224.337C1654.62 231.355 1640.91 235.496 1630.53 235.959C1622.68 228.714 1614.44 216.379 1608.61 202.387C1602.49 187.706 1599.3 171.854 1601.55 158.831L1601.57 158.693L1601.59 158.553C1601.81 156.387 1602.25 154.225 1602.95 152.114C1608.01 137.069 1623.52 129.453 1637.46 134.621Z" fill="#1F2024" stroke="#1F2024" stroke-width="8"/>
<g filter="url(#filter6_dii_24_668)">
<path d="M1588.84 147.847C1583.11 130.807 1565.35 121.863 1549.14 127.87C1539.3 131.515 1532.33 139.863 1529.62 149.627C1521.68 143.816 1511.28 141.917 1501.46 145.562C1485.26 151.576 1476.74 170.27 1482.47 187.31C1483.28 189.721 1484.36 191.957 1485.61 194.025C1498.62 219.133 1536.19 236.783 1558.94 237C1576.52 221.811 1595.24 183.273 1590.39 155.151C1590.14 152.711 1589.64 150.258 1588.84 147.847ZM1606.84 147.847C1612.56 130.807 1630.33 121.863 1646.54 127.87C1656.38 131.515 1663.34 139.863 1666.06 149.627C1674 143.816 1684.4 141.917 1694.22 145.562C1710.42 151.576 1718.94 170.27 1713.22 187.31C1712.4 189.721 1711.33 191.957 1710.07 194.025C1697.06 219.133 1659.49 236.783 1636.73 237C1619.15 221.811 1600.44 183.273 1605.29 155.151C1605.54 152.711 1606.04 150.258 1606.84 147.847Z" fill="#FE204F"/>
<path d="M1550.53 131.621L1550.53 131.621C1542.01 134.775 1535.88 142.041 1533.47 150.698L1531.93 156.272L1527.26 152.855C1520.33 147.783 1511.33 146.166 1502.85 149.312L1550.53 131.621ZM1550.53 131.621C1564.47 126.453 1579.98 134.069 1585.04 149.113C1585.74 151.225 1586.19 153.39 1586.41 155.564L1586.43 155.698L1586.45 155.831C1588.7 168.854 1585.5 184.706 1579.39 199.386C1573.55 213.379 1565.31 225.714 1557.46 232.959C1547.09 232.496 1533.38 228.355 1520.54 221.337C1507.06 213.968 1495.16 203.77 1489.16 192.185L1489.1 192.066M1550.53 131.621L1489.1 192.066M1489.1 192.066L1489.03 191.952M1489.1 192.066L1489.03 191.952M1489.03 191.952C1487.92 190.107 1486.97 188.137 1486.26 186.034C1481.18 170.912 1488.8 154.527 1502.85 149.312L1489.03 191.952ZM1645.15 131.621L1645.15 131.621C1653.66 134.775 1659.8 142.041 1662.21 150.701L1663.76 156.269L1668.42 152.855C1675.35 147.783 1684.35 146.166 1692.83 149.312C1706.87 154.526 1714.5 170.907 1709.43 186.031C1708.71 188.144 1707.77 190.112 1706.65 191.944L1706.58 192.062L1706.52 192.185C1700.52 203.77 1688.62 213.968 1675.14 221.337C1662.3 228.355 1648.59 232.496 1638.21 232.959C1630.36 225.714 1622.12 213.379 1616.29 199.387C1610.18 184.706 1606.98 168.854 1609.23 155.831L1609.26 155.693L1609.27 155.553C1609.49 153.387 1609.93 151.225 1610.63 149.114C1615.69 134.069 1631.21 126.453 1645.15 131.621Z" stroke="#1F2024" stroke-width="8"/>
</g>
</g>
</g>
<g filter="url(#filter7_i_24_668)">
<path d="M1187.94 107.339C1153.78 113.789 1153.04 72.0454 1157.09 44.2497C1157.24 43.1737 1155.76 42.6911 1155.19 43.6109C1057.81 198.103 1157.59 331 1283.29 331C1409.06 331 1482.94 216.612 1390.73 46.2577C1390.21 45.3025 1388.67 45.6944 1388.72 46.7794C1390.12 76.1271 1376.98 99.8573 1349.07 92.2255C1309.94 81.5229 1350.48 24.1551 1288.51 6.54046C1287.72 6.31533 1286.97 7.09292 1287.26 7.86242C1297.82 35.6017 1291.26 60.9982 1258.3 64.9048C1225.46 68.797 1217.06 44.719 1225.22 15.7662C1225.46 14.9147 1224.54 14.1979 1223.78 14.6402C1182.42 38.5124 1224.82 100.377 1187.94 107.339Z" fill="#E79834"/>
</g>
<path d="M1187.94 107.339C1153.78 113.789 1153.04 72.0454 1157.09 44.2497C1157.24 43.1737 1155.76 42.6911 1155.19 43.6109C1057.81 198.103 1157.59 331 1283.29 331C1409.06 331 1482.94 216.612 1390.73 46.2577C1390.21 45.3025 1388.67 45.6944 1388.72 46.7794C1390.12 76.1271 1376.98 99.8573 1349.07 92.2255C1309.94 81.5229 1350.48 24.1551 1288.51 6.54046C1287.72 6.31533 1286.97 7.09292 1287.26 7.86242C1297.82 35.6017 1291.26 60.9982 1258.3 64.9048C1225.46 68.797 1217.06 44.719 1225.22 15.7662C1225.46 14.9147 1224.54 14.1979 1223.78 14.6402C1182.42 38.5124 1224.82 100.377 1187.94 107.339Z" stroke="#1F2024" stroke-width="8" stroke-linejoin="round"/>
<path d="M1250.15 84.4027C1268.75 148.841 1179.1 168.497 1149.84 115.603C1148.89 113.883 1146.16 114.237 1145.84 116.177C1126.56 231.848 1210.58 325.996 1300.5 321.007C1395.31 315.746 1454.64 174.571 1388.35 111.17C1387.55 110.407 1386.21 110.517 1385.46 111.321C1324.14 176.593 1315.22 74.6245 1251.82 81.7864C1250.6 81.9247 1249.81 83.2185 1250.15 84.4027Z" fill="#F2C95C"/>
<path d="M1305.74 137.006C1299.49 185.332 1365.92 190.49 1382.98 150.164C1383.75 148.357 1386.52 148.313 1387.1 150.188C1412.57 232.808 1360.43 310.264 1293.57 316.167C1222.81 322.414 1163.89 225.195 1205.77 171.298C1206.45 170.431 1207.77 170.345 1208.64 171.023C1260.45 211.706 1256.63 136.782 1303.7 134.675C1304.93 134.619 1305.89 135.781 1305.74 137.006Z" fill="#F9E174"/>
<path d="M1345.38 226.5C1349.79 226.5 1353.48 230.146 1352.32 234.408C1348.85 247.14 1337.21 256.5 1323.38 256.5C1309.54 256.5 1297.9 247.14 1294.43 234.408C1293.27 230.146 1296.96 226.5 1301.38 226.5H1345.38Z" fill="#1F2024"/>
<path d="M1239.87 170.46C1229.8 170.234 1221.47 178.328 1221.47 188.423C1221.47 198.085 1229.13 206.02 1238.79 206.355C1292.88 208.23 1328.11 208.57 1381.08 206.443C1390.7 206.057 1398.28 198.127 1398.28 188.515C1398.28 178.372 1389.89 170.262 1379.78 170.522C1329.93 171.8 1294.97 171.692 1239.87 170.46Z" fill="#1F2024" stroke="#1F2024" stroke-width="8"/>
<path d="M1249.87 170.46C1239.8 170.234 1231.47 178.328 1231.47 188.423C1231.47 198.085 1239.13 206.02 1248.79 206.355C1302.88 208.23 1338.11 208.57 1391.08 206.443C1400.7 206.057 1408.28 198.127 1408.28 188.515C1408.28 178.372 1399.89 170.262 1389.78 170.522C1339.93 171.8 1304.97 171.692 1249.87 170.46Z" fill="#EB0D18" stroke="#1F2024" stroke-width="8"/>
<path d="M1282 170H1304L1293 206H1271L1282 170Z" fill="white"/>
<path d="M1249.87 170.46C1239.8 170.234 1231.47 178.328 1231.47 188.423C1231.47 198.085 1239.13 206.02 1248.79 206.355C1302.88 208.23 1338.11 208.57 1391.08 206.443C1400.7 206.057 1408.28 198.127 1408.28 188.515C1408.28 178.372 1399.89 170.262 1389.78 170.522C1339.93 171.8 1304.97 171.692 1249.87 170.46Z" stroke="#1F2024" stroke-width="8"/>
<g filter="url(#filter8_i_24_668)">
<path d="M1200.54 206.236L1127.84 174L1105 174C1111.66 208.276 1135.57 246.185 1158.91 259L1179.47 257.946C1187.33 258.121 1194.59 255.507 1200.54 249.48C1214.77 235.064 1214.2 212.727 1200.54 206.236Z" fill="#E79834"/>
</g>
<path d="M1200.54 206.236L1127.84 174L1105 174C1111.66 208.276 1135.57 246.185 1158.91 259L1179.47 257.946C1187.33 258.121 1194.59 255.507 1200.54 249.48C1214.77 235.064 1214.2 212.727 1200.54 206.236Z" stroke="#1F2024" stroke-width="8" stroke-linejoin="round"/>
<path d="M1105 174C1114.41 235.839 1148.45 279.036 1177.56 249.48C1191.76 235.064 1191.19 212.727 1177.56 206.236L1105 174Z" fill="#DE7E25" stroke="#1F2024" stroke-width="8" stroke-linejoin="round"/>
<ellipse cx="1152.5" cy="227" rx="13.5" ry="14" fill="#AF6017" stroke="#1F2024" stroke-width="8" stroke-linejoin="round"/>
<path fill-rule="evenodd" clip-rule="evenodd" d="M1159.37 215.146C1155.27 217.516 1152.52 221.945 1152.52 227.018C1152.52 232.092 1155.27 236.521 1159.37 238.891C1157.35 240.057 1155.01 240.725 1152.52 240.725C1144.95 240.725 1138.81 234.588 1138.81 227.018C1138.81 219.449 1144.95 213.312 1152.52 213.312C1155.01 213.312 1157.35 213.979 1159.37 215.146Z" fill="#EDB146"/>
<path d="M1159.37 215.146L1161.37 218.608C1162.61 217.893 1163.37 216.573 1163.37 215.146C1163.37 213.718 1162.61 212.398 1161.37 211.683L1159.37 215.146ZM1159.37 238.891L1161.37 242.354C1162.61 241.639 1163.37 240.319 1163.37 238.891C1163.37 237.463 1162.61 236.144 1161.37 235.429L1159.37 238.891ZM1156.52 227.018C1156.52 223.431 1158.46 220.292 1161.37 218.608L1157.37 211.683C1152.08 214.739 1148.52 220.459 1148.52 227.018H1156.52ZM1161.37 235.429C1158.46 233.744 1156.52 230.606 1156.52 227.018H1148.52C1148.52 233.577 1152.08 239.298 1157.37 242.354L1161.37 235.429ZM1157.37 235.429C1155.94 236.252 1154.29 236.725 1152.52 236.725V244.725C1155.73 244.725 1158.76 243.862 1161.37 242.354L1157.37 235.429ZM1152.52 236.725C1147.16 236.725 1142.81 232.379 1142.81 227.018H1134.81C1134.81 236.797 1142.74 244.725 1152.52 244.725V236.725ZM1142.81 227.018C1142.81 221.658 1147.16 217.312 1152.52 217.312V209.312C1142.74 209.312 1134.81 217.239 1134.81 227.018H1142.81ZM1152.52 217.312C1154.29 217.312 1155.94 217.785 1157.37 218.608L1161.37 211.683C1158.76 210.174 1155.73 209.312 1152.52 209.312V217.312Z" fill="#1F2024"/>
<g clip-path="url(#clip1_24_668)">
<g filter="url(#filter9_ii_24_668)">
<path d="M833 130C833 116.745 843.745 106 857 106H1049C1062.25 106 1073 116.745 1073 130V290C1073 303.255 1062.25 314 1049 314H857C843.745 314 833 303.255 833 290V130Z" fill="#8A7DD8"/>
</g>
<path d="M833 130C833 116.745 843.745 106 857 106H1049C1062.25 106 1073 116.745 1073 130V290C1073 303.255 1062.25 314 1049 314H857C843.745 314 833 303.255 833 290V130Z" stroke="#1F2024" stroke-width="8"/>
<g filter="url(#filter10_i_24_668)">
<path d="M933 130C933 116.745 943.745 106 957 106H1133C1146.25 106 1157 116.745 1157 130V290C1157 303.255 1146.25 314 1133 314H957C943.745 314 933 303.255 933 290V130Z" fill="#AEA5EE"/>
</g>
<path d="M933 130C933 116.745 943.745 106 957 106H1133C1146.25 106 1157 116.745 1157 130V290C1157 303.255 1146.25 314 1133 314H957C943.745 314 933 303.255 933 290V130Z" stroke="#1F2024" stroke-width="8"/>
<path d="M1061 110H1099L1043 310H1005L1061 110Z" fill="white" fill-opacity="0.5"/>
<path d="M1046 110H1052L996 310H990L1046 110Z" fill="white" fill-opacity="0.5"/>
<path d="M833 205C833 200.582 836.582 197 841 197H901C905.418 197 909 200.582 909 205V245C909 249.418 905.418 253 901 253H841C836.582 253 833 249.418 833 245V205Z" fill="#1F2024" fill-opacity="0.16"/>
<g filter="url(#filter11_ii_24_668)">
<path d="M829 193C829 188.582 832.582 185 837 185H902C906.418 185 910 188.582 910 193V233C910 237.418 906.418 241 902 241H837C832.582 241 829 237.418 829 233V193Z" fill="#8A7DD8"/>
</g>
<path d="M829 193C829 188.582 832.582 185 837 185H902C906.418 185 910 188.582 910 193V233C910 237.418 906.418 241 902 241H837C832.582 241 829 237.418 829 233V193Z" stroke="#1F2024" stroke-width="8"/>
<g filter="url(#filter12_i_24_668)">
<path d="M886 193C886 188.582 889.582 185 894 185H902C906.418 185 910 188.582 910 193V233C910 237.418 906.418 241 902 241H894C889.582 241 886 237.418 886 233V193Z" fill="#AEA5EE"/>
</g>
<path d="M886 193C886 188.582 889.582 185 894 185H902C906.418 185 910 188.582 910 193V233C910 237.418 906.418 241 902 241H894C889.582 241 886 237.418 886 233V193Z" stroke="#1F2024" stroke-width="8"/>
<rect x="846" y="204" width="8" height="20" rx="4" fill="#1F2024"/>
<rect x="858" y="204" width="8" height="20" rx="4" fill="#1F2024"/>
<rect x="988" y="55" width="14" height="45" fill="#AEA5EE" stroke="#1F2024" stroke-width="8"/>
<g filter="url(#filter13_i_24_668)">
<circle cx="995" cy="47" r="23" fill="#9BCEF1"/>
</g>
<circle cx="995" cy="47" r="23" stroke="#1F2024" stroke-width="8"/>
<circle cx="1004" cy="38" r="6" fill="white"/>
<g filter="url(#filter14_i_24_668)">
<path d="M976 98C976 95.7909 977.791 94 980 94H1010C1012.21 94 1014 95.7909 1014 98V106H976V98Z" fill="#AEA5EE"/>
</g>
<path d="M976 98C976 95.7909 977.791 94 980 94H1010C1012.21 94 1014 95.7909 1014 98V106H976V98Z" stroke="#1F2024" stroke-width="8"/>
<g filter="url(#filter15_d_24_668)">
<path d="M1145.36 207.5C1145.36 230.495 1139.64 251.122 1130.61 265.869C1121.54 280.683 1109.54 289 1097 289C1084.46 289 1072.46 280.683 1063.39 265.869C1054.36 251.122 1048.64 230.495 1048.64 207.5C1048.64 184.505 1054.36 163.878 1063.39 149.131C1072.46 134.317 1084.46 126 1097 126C1109.54 126 1121.54 134.317 1130.61 149.131C1139.64 163.878 1145.36 184.505 1145.36 207.5Z" fill="#1F2024" stroke="#1F2024" stroke-width="8"/>
<g filter="url(#filter16_i_24_668)">
<ellipse cx="1101.59" cy="206.5" rx="52.3605" ry="85.5" fill="white"/>
</g>
<path d="M1149.95 206.5C1149.95 229.495 1144.24 250.122 1135.21 264.869C1126.13 279.683 1114.14 288 1101.59 288C1089.05 288 1077.05 279.683 1067.98 264.869C1058.95 250.122 1053.23 229.495 1053.23 206.5C1053.23 183.505 1058.95 162.878 1067.98 148.131C1077.05 133.317 1089.05 125 1101.59 125C1114.14 125 1126.13 133.317 1135.21 148.131C1144.24 162.878 1149.95 183.505 1149.95 206.5Z" stroke="#1F2024" stroke-width="8"/>
<path d="M1107.78 204.5C1107.78 218.278 1097.37 229 1085.06 229C1072.75 229 1062.34 218.278 1062.34 204.5C1062.34 190.722 1072.75 180 1085.06 180C1097.37 180 1107.78 190.722 1107.78 204.5Z" fill="#1058C5" stroke="#1F2024" stroke-width="8"/>
<path d="M1092.16 204.5C1092.16 210.227 1087.41 215 1081.38 215C1075.36 215 1070.6 210.227 1070.6 204.5C1070.6 198.773 1075.36 194 1081.38 194C1087.41 194 1092.16 198.773 1092.16 204.5Z" fill="#1F2024" stroke="#1F2024" stroke-width="8"/>
<ellipse cx="1093.49" cy="196.5" rx="7.26744" ry="7.5" fill="white"/>
<path d="M1039.72 207.5C1039.72 230.495 1034 251.122 1024.97 265.869C1015.9 280.683 1003.9 289 991.36 289C978.818 289 966.82 280.683 957.747 265.869C948.716 251.122 943 230.495 943 207.5C943 184.505 948.716 163.878 957.747 149.131C966.82 134.317 978.818 126 991.36 126C1003.9 126 1015.9 134.317 1024.97 149.131C1034 163.878 1039.72 184.505 1039.72 207.5Z" fill="#1F2024" stroke="#1F2024" stroke-width="8"/>
<g filter="url(#filter17_i_24_668)">
<ellipse cx="995.953" cy="206.5" rx="52.3605" ry="85.5" fill="white"/>
</g>
<path d="M1044.31 206.5C1044.31 229.495 1038.6 250.122 1029.57 264.869C1020.49 279.683 1008.5 288 995.953 288C983.411 288 971.413 279.683 962.34 264.869C953.309 250.122 947.593 229.495 947.593 206.5C947.593 183.505 953.309 162.878 962.34 148.131C971.413 133.317 983.411 125 995.953 125C1008.5 125 1020.49 133.317 1029.57 148.131C1038.6 162.878 1044.31 183.505 1044.31 206.5Z" stroke="#1F2024" stroke-width="8"/>
<path d="M1002.14 204.5C1002.14 218.278 991.728 229 979.419 229C967.109 229 956.698 218.278 956.698 204.5C956.698 190.722 967.109 180 979.419 180C991.728 180 1002.14 190.722 1002.14 204.5Z" fill="#1058C5" stroke="#1F2024" stroke-width="8"/>
<path d="M986.523 204.5C986.523 210.227 981.77 215 975.744 215C969.719 215 964.965 210.227 964.965 204.5C964.965 198.773 969.719 194 975.744 194C981.77 194 986.523 198.773 986.523 204.5Z" fill="#1F2024" stroke="#1F2024" stroke-width="8"/>
<ellipse cx="987.849" cy="196.5" rx="7.26744" ry="7.5" fill="white"/>
</g>
</g>
<g clip-path="url(#clip2_24_668)">
<g filter="url(#filter18_ii_24_668)">
<path d="M558 130C558 116.745 568.745 106 582 106H774C787.255 106 798 116.745 798 130V290C798 303.255 787.255 314 774 314H582C568.745 314 558 303.255 558 290V130Z" fill="#8A7DD8"/>
</g>
<path d="M558 130C558 116.745 568.745 106 582 106H774C787.255 106 798 116.745 798 130V290C798 303.255 787.255 314 774 314H582C568.745 314 558 303.255 558 290V130Z" stroke="#1F2024" stroke-width="8"/>
<g filter="url(#filter19_i_24_668)">
<path d="M658 130C658 116.745 668.745 106 682 106H858C871.255 106 882 116.745 882 130V290C882 303.255 871.255 314 858 314H682C668.745 314 658 303.255 658 290V130Z" fill="#AEA5EE"/>
</g>
<path d="M658 130C658 116.745 668.745 106 682 106H858C871.255 106 882 116.745 882 130V290C882 303.255 871.255 314 858 314H682C668.745 314 658 303.255 658 290V130Z" stroke="#1F2024" stroke-width="8"/>
<path d="M786 110H824L768 310H730L786 110Z" fill="white" fill-opacity="0.5"/>
<path d="M771 110H777L721 310H715L771 110Z" fill="white" fill-opacity="0.5"/>
<path d="M836 202C836 197.757 834.314 193.687 831.314 190.686C828.313 187.686 824.243 186 820 186C815.757 186 811.687 187.686 808.686 190.686C805.686 193.687 804 197.757 804 202" stroke="#1F2024" stroke-width="10" stroke-linecap="round"/>
<path d="M740 202C740 197.757 738.314 193.687 735.314 190.686C732.313 187.686 728.243 186 724 186C719.757 186 715.687 187.686 712.686 190.686C709.686 193.687 708 197.757 708 202" stroke="#1F2024" stroke-width="10" stroke-linecap="round"/>
<path d="M567 220C567 215.582 570.582 212 575 212H632C636.418 212 640 215.582 640 220V251C640 255.418 636.418 259 632 259H575C570.582 259 567 255.418 567 251V220Z" fill="#1F2024" fill-opacity="0.16"/>
<rect x="602" y="182" width="1" height="45" fill="#4795E0" stroke="#1F2024" stroke-width="8"/>
<g filter="url(#filter20_i_24_668)">
<circle cx="603" cy="167" r="16" fill="#9BCEF1"/>
</g>
<circle cx="603" cy="167" r="16" stroke="#1F2024" stroke-width="8"/>
<g filter="url(#filter21_ii_24_668)">
<path d="M566 216C566 211.582 569.582 208 574 208H631C635.418 208 639 211.582 639 216V241C639 245.418 635.418 249 631 249H574C569.582 249 566 245.418 566 241V216Z" fill="#8A7DD8"/>
</g>
<path d="M566 216C566 211.582 569.582 208 574 208H631C635.418 208 639 211.582 639 216V241C639 245.418 635.418 249 631 249H574C569.582 249 566 245.418 566 241V216Z" stroke="#1F2024" stroke-width="8"/>
<g filter="url(#filter22_i_24_668)">
<path d="M614 216C614 211.582 617.582 208 622 208H630.589C635.007 208 638.589 211.582 638.589 216V241C638.589 245.418 635.007 249 630.589 249H622C617.582 249 614 245.418 614 241V216Z" fill="#AEA5EE"/>
</g>
<path d="M614 216C614 211.582 617.582 208 622 208H630.589C635.007 208 638.589 211.582 638.589 216V241C638.589 245.418 635.007 249 630.589 249H622C617.582 249 614 245.418 614 241V216Z" stroke="#1F2024" stroke-width="8"/>
<path d="M830 230C836.627 230 842.125 235.396 841.32 241.975C837.97 269.374 821.261 290 770 290C718.739 290 702.03 269.374 698.68 241.975C697.875 235.396 703.373 230 710 230H830Z" fill="#4A4A4E" stroke="#1F2024" stroke-width="8"/>
<path d="M820.25 278.663C809.242 285.796 793.142 290 770 290C723.551 290 705.472 273.065 699.994 249.5C721.25 239.75 797 249.5 820.25 278.663Z" fill="#FF55A2" stroke="#1F2024" stroke-width="8"/>
<path d="M728 234.5C728 232.015 730.015 230 732.5 230H759.5C761.985 230 764 232.015 764 234.5V248C764 254.627 758.627 260 752 260H740C733.373 260 728 254.627 728 248V234.5Z" fill="white" stroke="#1F2024" stroke-width="8"/>
<path d="M764 234.5C764 232.015 766.015 230 768.5 230H795.5C797.985 230 800 232.015 800 234.5V248C800 254.627 794.627 260 788 260H776C769.373 260 764 254.627 764 248V234.5Z" fill="white" stroke="#1F2024" stroke-width="8"/>
<path d="M676 52C676 27.6995 695.699 8 720 8C744.301 8 764 27.6995 764 52V94H676V52Z" fill="#FFF7B4" fill-opacity="0.5" stroke="#1F2024" stroke-width="8"/>
<g filter="url(#filter23_i_24_668)">
<path d="M664 102C664 97.5817 667.582 94 672 94H768C772.418 94 776 97.5817 776 102V106H664V102Z" fill="#AEA5EE"/>
</g>
<path d="M664 102C664 97.5817 667.582 94 672 94H768C772.418 94 776 97.5817 776 102V106H664V102Z" stroke="#1F2024" stroke-width="8"/>
<path d="M728 90V55H712V90" stroke="#F2C95C" stroke-width="8"/>
<path d="M696 47C696 42.5817 699.582 39 704 39V39C708.418 39 712 42.5817 712 47V55H704C699.582 55 696 51.4183 696 47V47Z" stroke="#F2C95C" stroke-width="8"/>
<path d="M728 47C728 42.5817 731.582 39 736 39V39C740.418 39 744 42.5817 744 47V47C744 51.4183 740.418 55 736 55H728V47Z" stroke="#F2C95C" stroke-width="8"/>
<path d="M720 20C737.673 20 752 34.3269 752 52" stroke="white" stroke-width="8" stroke-linecap="round"/>
<g filter="url(#filter24_dii_24_668)">
<path d="M716.175 272.636C711.813 289.935 694.363 300.392 677.19 295.997C660.023 291.609 649.637 274.032 653.993 256.732C658.349 239.432 694.646 200.457 700.868 202.047C707.091 203.643 720.531 255.342 716.175 272.636ZM826.822 272.636C831.185 289.935 848.634 300.392 865.808 295.997C882.981 291.609 893.367 274.032 889.005 256.732C884.643 239.432 848.345 200.457 842.123 202.047C835.913 203.643 822.467 255.342 826.822 272.636Z" fill="#CAE9FA"/>
<path d="M678.182 292.122L678.181 292.122C663.172 288.286 654.048 272.896 657.872 257.708C658.78 254.099 661.524 248.904 665.59 242.911C669.584 237.024 674.611 230.717 679.721 224.962C684.838 219.2 689.961 214.079 694.125 210.534C696.22 208.75 697.969 207.453 699.287 206.671C699.46 206.569 699.617 206.48 699.76 206.403C699.851 206.542 699.95 206.7 700.056 206.878C700.846 208.203 701.771 210.186 702.767 212.762C704.748 217.881 706.826 224.846 708.595 232.37C710.362 239.886 711.793 247.846 712.517 254.941C713.253 262.163 713.205 268.05 712.296 271.659C708.469 286.834 693.186 295.961 678.182 292.122ZM699.133 205.584C699.11 205.566 699.099 205.555 699.099 205.554C699.099 205.553 699.11 205.562 699.133 205.584ZM700.744 205.972C700.743 205.973 700.728 205.977 700.7 205.982C700.73 205.974 700.744 205.971 700.744 205.972ZM864.817 292.122L864.816 292.122C849.812 295.961 834.529 286.834 830.701 271.659C829.792 268.05 829.745 262.163 830.482 254.941C831.205 247.846 832.637 239.886 834.404 232.37C836.173 224.846 838.25 217.881 840.23 212.761C841.227 210.185 842.151 208.201 842.94 206.877C843.045 206.7 843.143 206.543 843.234 206.404C843.376 206.481 843.532 206.569 843.704 206.671C845.022 207.453 846.771 208.75 848.867 210.534C853.03 214.079 858.153 219.2 863.271 224.962C868.382 230.717 873.409 237.024 877.404 242.911C881.471 248.904 884.216 254.1 885.126 257.71C888.955 272.895 879.832 288.285 864.817 292.122ZM843.896 205.552C843.897 205.553 843.885 205.564 843.862 205.582C843.885 205.56 843.896 205.551 843.896 205.552ZM842.247 205.972C842.247 205.971 842.261 205.974 842.291 205.982C842.263 205.977 842.248 205.973 842.247 205.972Z" stroke="#1F2024" stroke-width="8"/>
</g>
<circle cx="698" cy="268" r="7" fill="white"/>
<circle cx="869" cy="268" r="7" fill="white"/>
<path d="M744.555 148.588C726.555 134.588 687.555 154.088 684.055 179.588" stroke="#1F2024" stroke-width="12" stroke-linecap="round"/>
<path d="M800.622 148.588C818.622 134.588 857.622 154.088 861.122 179.588" stroke="#1F2024" stroke-width="12" stroke-linecap="round"/>
</g>
<g clip-path="url(#clip3_24_668)">
<g filter="url(#filter25_ii_24_668)">
<path d="M283 130C283 116.745 293.745 106 307 106H499C512.255 106 523 116.745 523 130V290C523 303.255 512.255 314 499 314H307C293.745 314 283 303.255 283 290V130Z" fill="#E22C2C"/>
</g>
<path d="M283 130C283 116.745 293.745 106 307 106H499C512.255 106 523 116.745 523 130V290C523 303.255 512.255 314 499 314H307C293.745 314 283 303.255 283 290V130Z" stroke="#1F2024" stroke-width="8"/>
<g filter="url(#filter26_i_24_668)">
<path d="M383 130C383 116.745 393.745 106 407 106H583C596.255 106 607 116.745 607 130V290C607 303.255 596.255 314 583 314H407C393.745 314 383 303.255 383 290V130Z" fill="#FF5252"/>
</g>
<path d="M383 130C383 116.745 393.745 106 407 106H583C596.255 106 607 116.745 607 130V290C607 303.255 596.255 314 583 314H407C393.745 314 383 303.255 383 290V130Z" stroke="#1F2024" stroke-width="8"/>
<path d="M511 110H549L493 310H455L511 110Z" fill="white" fill-opacity="0.5"/>
<path d="M496 110H502L446 310H440L496 110Z" fill="white" fill-opacity="0.5"/>
<path d="M409.501 179.927L493.936 198.097" stroke="#1F2024" stroke-width="12.5217" stroke-linecap="round"/>
<path d="M478.173 195.448C477.572 198.243 476.425 200.892 474.8 203.245C473.174 205.597 471.101 207.606 468.699 209.157C466.298 210.709 463.614 211.771 460.801 212.285C457.988 212.799 455.102 212.754 452.306 212.153C449.511 211.551 446.862 210.405 444.509 208.779C442.157 207.154 440.148 205.081 438.597 202.679C437.045 200.277 435.983 197.593 435.469 194.78C434.955 191.968 435 189.081 435.601 186.286L456.887 190.867L478.173 195.448Z" fill="white" stroke="#1F2024" stroke-width="8.34783"/>
<path d="M395 232.645V215.495L445.946 205.696V213.658L442.263 215.495L447.174 216.72L445.946 224.682L408.504 233.87L400.524 230.807L395 232.645Z" fill="#1F2024"/>
<path d="M595.455 179.927L511.021 198.097" stroke="#1F2024" stroke-width="12.5217" stroke-linecap="round"/>
<path d="M526.783 195.448C527.385 198.243 528.531 200.892 530.157 203.245C531.782 205.597 533.855 207.606 536.257 209.157C538.659 210.709 541.343 211.771 544.156 212.285C546.968 212.799 549.855 212.754 552.65 212.153C555.445 211.551 558.095 210.405 560.447 208.779C562.8 207.154 564.809 205.081 566.36 202.679C567.911 200.277 568.974 197.593 569.488 194.78C570.002 191.968 569.957 189.081 569.355 186.286L548.069 190.867L526.783 195.448Z" fill="white" stroke="#1F2024" stroke-width="8.34783"/>
<path d="M609.957 232.645V215.495L559.01 205.696V213.658L562.693 215.495L557.783 216.72L559.01 224.682L596.453 233.87L604.432 230.807L609.957 232.645Z" fill="#1F2024"/>
<path d="M314 172L309.135 188.505M351.259 238.795L336.312 206.162L307.324 200.5L309.135 188.505M351.259 238.795L344 253M351.259 238.795H362.129H373M309.135 188.505H296" stroke="#1F2024" stroke-width="8" stroke-linecap="round" stroke-linejoin="round"/>
<rect x="285.707" y="238.707" width="104" height="32" rx="16" transform="rotate(-45 285.707 238.707)" fill="#B3A275" stroke="#1F2024" stroke-width="8"/>
<rect x="310.456" y="212.544" width="32" height="34" rx="2" transform="rotate(-45 310.456 212.544)" fill="#E5DEB1" stroke="#1F2024" stroke-width="8"/>
<circle cx="347.225" cy="191.331" r="2" transform="rotate(-45 347.225 191.331)" fill="#9A855A"/>
<circle cx="303.385" cy="235.172" r="2" transform="rotate(-45 303.385 235.172)" fill="#9A855A"/>
<circle cx="355.711" cy="199.816" r="2" transform="rotate(-45 355.711 199.816)" fill="#9A855A"/>
<circle cx="311.87" cy="243.657" r="2" transform="rotate(-45 311.87 243.657)" fill="#9A855A"/>
<circle cx="355.711" cy="191.331" r="2" transform="rotate(-45 355.711 191.331)" fill="#9A855A"/>
<circle cx="311.87" cy="235.172" r="2" transform="rotate(-45 311.87 235.172)" fill="#9A855A"/>
<circle cx="364.196" cy="182.846" r="2" transform="rotate(-45 364.196 182.846)" fill="#9A855A"/>
<circle cx="303.385" cy="243.657" r="2" transform="rotate(-45 303.385 243.657)" fill="#9A855A"/>
<circle cx="355.711" cy="182.846" r="2" transform="rotate(-45 355.711 182.846)" fill="#9A855A"/>
<circle cx="311.87" cy="226.686" r="2" transform="rotate(-45 311.87 226.686)" fill="#9A855A"/>
<circle cx="364.196" cy="191.331" r="2" transform="rotate(-45 364.196 191.331)" fill="#9A855A"/>
<circle cx="320.355" cy="235.172" r="2" transform="rotate(-45 320.355 235.172)" fill="#9A855A"/>
<g filter="url(#filter27_ddi_24_668)">
<g clip-path="url(#clip4_24_668)">
<rect x="443" y="231" width="112" height="32" rx="16" fill="#1F2024"/>
<rect x="443" y="231" width="12" height="32" fill="white"/>
<rect x="463" y="231" width="12" height="32" fill="white"/>
<rect x="483" y="231" width="12" height="32" fill="white"/>
<rect x="503" y="231" width="12" height="32" fill="white"/>
<rect x="523" y="231" width="12" height="32" fill="white"/>
<rect x="543" y="231" width="12" height="32" fill="white"/>
</g>
<rect x="443" y="231" width="112" height="32" rx="16" stroke="#1F2024" stroke-width="6"/>
</g>
<rect x="394.26" y="38.92" width="20.64" height="8.6" fill="#FE204F" stroke="#1F2024" stroke-width="6.88" stroke-linejoin="round"/>
<path fill-rule="evenodd" clip-rule="evenodd" d="M465.699 9.78502L467.36 17.85L470.584 9.32845C474.917 8.98927 479.294 8.82001 483.7 8.82001L463.06 106H356.42C357.307 101.184 358.426 96.5509 359.763 92.0988L368.46 88.8L361.852 85.7711C368.76 66.6261 379.879 51.1088 393.876 39.1575L404.58 50.53L403.556 31.7607C421.425 19.5616 442.861 12.2698 465.699 9.78502Z" fill="#EB0D18"/>
<path d="M467.36 17.85L463.991 18.5437C464.299 20.0429 465.561 21.1579 467.087 21.2792C468.613 21.4005 470.036 20.499 470.577 19.0674L467.36 17.85ZM465.699 9.78502L469.069 9.09133C468.711 7.35389 467.091 6.17334 465.327 6.3652L465.699 9.78502ZM470.584 9.32845L470.316 5.89894C468.987 6.00294 467.838 6.86478 467.367 8.11106L470.584 9.32845ZM483.7 8.82001L487.065 9.53469C487.281 8.51957 487.026 7.46137 486.373 6.65493C485.72 5.84849 484.738 5.38001 483.7 5.38001V8.82001ZM463.06 106V109.44C464.684 109.44 466.087 108.304 466.425 106.715L463.06 106ZM356.42 106L353.037 105.377C352.852 106.381 353.123 107.416 353.776 108.201C354.43 108.986 355.399 109.44 356.42 109.44V106ZM359.763 92.0988L358.543 88.8824C357.543 89.2619 356.776 90.085 356.468 91.1097L359.763 92.0988ZM368.46 88.8L369.68 92.0164C370.977 91.5245 371.851 90.3018 371.898 88.9156C371.945 87.5294 371.154 86.2507 369.893 85.6728L368.46 88.8ZM361.852 85.7711L358.616 84.6035C358.009 86.286 358.792 88.1531 360.418 88.8983L361.852 85.7711ZM393.876 39.1575L396.381 36.7998C395.124 35.4635 393.038 35.3497 391.643 36.5414L393.876 39.1575ZM404.58 50.53L402.075 52.8877C403.065 53.9396 404.607 54.2609 405.935 53.692C407.263 53.1231 408.094 51.7851 408.015 50.3426L404.58 50.53ZM403.556 31.7607L401.617 28.9197C400.623 29.5982 400.056 30.7466 400.121 31.9481L403.556 31.7607ZM470.729 17.1563L469.069 9.09133L462.33 10.4787L463.991 18.5437L470.729 17.1563ZM467.367 8.11106L464.143 16.6326L470.577 19.0674L473.802 10.5458L467.367 8.11106ZM470.853 12.758C475.094 12.4259 479.382 12.26 483.7 12.26V5.38001C479.205 5.38001 474.739 5.55264 470.316 5.89894L470.853 12.758ZM480.335 8.10533L459.695 105.285L466.425 106.715L487.065 9.53469L480.335 8.10533ZM463.06 102.56H356.42V109.44H463.06V102.56ZM359.803 106.623C360.668 101.928 361.758 97.4169 363.058 93.088L356.468 91.1097C355.095 95.6849 353.946 100.441 353.037 105.377L359.803 106.623ZM360.983 95.3152L369.68 92.0164L367.24 85.5836L358.543 88.8824L360.983 95.3152ZM369.893 85.6728L363.285 82.644L360.418 88.8983L367.027 91.9272L369.893 85.6728ZM365.087 86.9387C371.79 68.3632 382.561 53.3427 396.11 41.7736L391.643 36.5414C377.198 48.8749 365.729 64.889 358.616 84.6035L365.087 86.9387ZM391.371 41.5151L402.075 52.8877L407.085 48.1723L396.381 36.7998L391.371 41.5151ZM408.015 50.3426L406.991 31.5734L400.121 31.9481L401.145 50.7174L408.015 50.3426ZM405.496 34.6017C422.834 22.765 443.713 15.6374 466.072 13.2048L465.327 6.3652C442.009 8.90221 420.016 16.3583 401.617 28.9197L405.496 34.6017Z" fill="#1F2024"/>
<path d="M394.26 102.56C396.41 53.11 445 84.07 431.67 17.3905L454.03 12.26C469.94 41.07 405.87 69.45 417.05 102.56H394.26Z" fill="white" fill-opacity="0.3"/>
<path fill-rule="evenodd" clip-rule="evenodd" d="M520.68 8.82001H483.7L463.06 106H500.04L508.287 67.1702L499.61 67.73L509.882 59.6589L520.68 8.82001Z" fill="#FE204F"/>
<path d="M483.7 8.82001V5.38001C482.076 5.38001 480.672 6.51634 480.335 8.10533L483.7 8.82001ZM520.68 8.82001L524.045 9.53469C524.26 8.51957 524.006 7.46137 523.353 6.65493C522.7 5.84849 521.718 5.38001 520.68 5.38001V8.82001ZM463.06 106L459.695 105.285C459.479 106.3 459.734 107.359 460.387 108.165C461.04 108.972 462.022 109.44 463.06 109.44V106ZM500.04 106V109.44C501.664 109.44 503.067 108.304 503.405 106.715L500.04 106ZM508.287 67.1702L511.652 67.8849C511.876 66.8317 511.593 65.7346 510.889 64.9201C510.185 64.1057 509.14 63.668 508.066 63.7373L508.287 67.1702ZM499.61 67.73L497.485 65.0251C496.299 65.9563 495.859 67.5507 496.397 68.9585C496.935 70.3664 498.327 71.2599 499.831 71.1629L499.61 67.73ZM509.882 59.6589L512.008 62.3638C512.641 61.866 513.08 61.1617 513.247 60.3736L509.882 59.6589ZM483.7 12.26H520.68V5.38001H483.7V12.26ZM466.425 106.715L487.065 9.53469L480.335 8.10533L459.695 105.285L466.425 106.715ZM500.04 102.56H463.06V109.44H500.04V102.56ZM504.922 66.4555L496.675 105.285L503.405 106.715L511.652 67.8849L504.922 66.4555ZM508.066 63.7373L499.389 64.2971L499.831 71.1629L508.508 70.6031L508.066 63.7373ZM501.735 70.4349L512.008 62.3638L507.757 56.954L497.485 65.0251L501.735 70.4349ZM517.315 8.10533L506.517 58.9442L513.247 60.3736L524.045 9.53469L517.315 8.10533Z" fill="#1F2024"/>
<path d="M467.36 17.85L463.991 18.5437C464.299 20.0429 465.561 21.1579 467.087 21.2792C468.613 21.4005 470.036 20.499 470.577 19.0674L467.36 17.85ZM465.699 9.78502L469.069 9.09133C468.711 7.35389 467.091 6.17334 465.327 6.3652L465.699 9.78502ZM470.584 9.32845L470.316 5.89894C468.987 6.00294 467.838 6.86478 467.367 8.11106L470.584 9.32845ZM483.7 8.82001L487.065 9.53469C487.281 8.51957 487.026 7.46137 486.373 6.65493C485.72 5.84849 484.738 5.38001 483.7 5.38001V8.82001ZM463.06 106V109.44C464.684 109.44 466.087 108.304 466.425 106.715L463.06 106ZM356.42 106L353.037 105.377C352.852 106.381 353.123 107.416 353.776 108.201C354.43 108.986 355.399 109.44 356.42 109.44V106ZM359.763 92.0988L358.543 88.8824C357.543 89.2619 356.776 90.085 356.468 91.1097L359.763 92.0988ZM368.46 88.8L369.68 92.0164C370.977 91.5245 371.851 90.3018 371.898 88.9156C371.945 87.5294 371.154 86.2507 369.893 85.6728L368.46 88.8ZM361.852 85.7711L358.616 84.6035C358.009 86.286 358.792 88.1531 360.418 88.8983L361.852 85.7711ZM393.876 39.1575L396.381 36.7998C395.124 35.4635 393.038 35.3497 391.643 36.5414L393.876 39.1575ZM404.58 50.53L402.075 52.8877C403.065 53.9396 404.607 54.2609 405.935 53.692C407.263 53.1231 408.094 51.7851 408.015 50.3426L404.58 50.53ZM403.556 31.7607L401.617 28.9197C400.623 29.5982 400.056 30.7466 400.121 31.9481L403.556 31.7607ZM470.729 17.1563L469.069 9.09133L462.33 10.4787L463.991 18.5437L470.729 17.1563ZM467.367 8.11106L464.143 16.6326L470.577 19.0674L473.802 10.5458L467.367 8.11106ZM470.853 12.758C475.094 12.4259 479.382 12.26 483.7 12.26V5.38001C479.205 5.38001 474.739 5.55264 470.316 5.89894L470.853 12.758ZM480.335 8.10533L459.695 105.285L466.425 106.715L487.065 9.53469L480.335 8.10533ZM463.06 102.56H356.42V109.44H463.06V102.56ZM359.803 106.623C360.668 101.928 361.758 97.4169 363.058 93.088L356.468 91.1097C355.095 95.6849 353.946 100.441 353.037 105.377L359.803 106.623ZM360.983 95.3152L369.68 92.0164L367.24 85.5836L358.543 88.8824L360.983 95.3152ZM369.893 85.6728L363.285 82.644L360.418 88.8983L367.027 91.9272L369.893 85.6728ZM365.087 86.9387C371.79 68.3632 382.561 53.3427 396.11 41.7736L391.643 36.5414C377.198 48.8749 365.729 64.889 358.616 84.6035L365.087 86.9387ZM391.371 41.5151L402.075 52.8877L407.085 48.1723L396.381 36.7998L391.371 41.5151ZM408.015 50.3426L406.991 31.5734L400.121 31.9481L401.145 50.7174L408.015 50.3426ZM405.496 34.6017C422.834 22.765 443.713 15.6374 466.072 13.2048L465.327 6.3652C442.009 8.90221 420.016 16.3583 401.617 28.9197L405.496 34.6017Z" fill="#1F2024"/>
</g>
<g clip-path="url(#clip5_24_668)">
<path d="M326.714 320.644C326.938 320.772 327.13 320.891 327.296 321C327.13 321.109 326.938 321.228 326.714 321.356C324.979 322.348 322.16 323.436 318.164 324.54C310.234 326.732 298.572 328.751 283.94 330.462C254.731 333.877 214.268 336 169.5 336C124.732 336 84.2691 333.877 55.0597 330.462C40.428 328.751 28.7657 326.732 20.8358 324.54C16.8398 323.436 14.0215 322.348 12.2859 321.356C12.0625 321.228 11.8696 321.109 11.7037 321C11.8696 320.891 12.0625 320.772 12.2859 320.644C14.0215 319.652 16.8398 318.564 20.8358 317.46C28.7657 315.268 40.428 313.249 55.0597 311.538C84.2691 308.123 124.732 306 169.5 306C214.268 306 254.731 308.123 283.94 311.538C298.572 313.249 310.234 315.268 318.164 317.46C322.16 318.564 324.979 319.652 326.714 320.644Z" fill="#CAE9FA" stroke="#1F2024" stroke-width="8"/>
<g filter="url(#filter28_ii_24_668)">
<path d="M8 130C8 116.745 18.7452 106 32 106H224C237.255 106 248 116.745 248 130V290C248 303.255 237.255 314 224 314H32C18.7452 314 8 303.255 8 290V130Z" fill="#8A7DD8"/>
</g>
<path d="M8 130C8 116.745 18.7452 106 32 106H224C237.255 106 248 116.745 248 130V290C248 303.255 237.255 314 224 314H32C18.7452 314 8 303.255 8 290V130Z" stroke="#1F2024" stroke-width="8"/>
<g filter="url(#filter29_i_24_668)">
<path d="M108 130C108 116.745 118.745 106 132 106H308C321.255 106 332 116.745 332 130V290C332 303.255 321.255 314 308 314H132C118.745 314 108 303.255 108 290V130Z" fill="#AEA5EE"/>
</g>
<path d="M108 130C108 116.745 118.745 106 132 106H308C321.255 106 332 116.745 332 130V290C332 303.255 321.255 314 308 314H132C118.745 314 108 303.255 108 290V130Z" stroke="#1F2024" stroke-width="8"/>
<path d="M236 110H274L218 310H180L236 110Z" fill="white" fill-opacity="0.5"/>
<path d="M221 110H227L171 310H165L221 110Z" fill="white" fill-opacity="0.5"/>
<path d="M250.5 286C256.851 286 262.069 280.831 261.39 274.516C258.177 244.65 242.659 222 224 222C205.341 222 189.823 244.65 186.61 274.516C185.931 280.831 191.149 286 197.5 286H250.5Z" fill="#1F2024"/>
<path d="M248 286C248 273.85 236.359 264 222 264C207.641 264 196 273.85 196 286H248Z" fill="#FF3979"/>
<path d="M307.555 169C289.555 183 250.555 163.5 247.055 138" stroke="#1F2024" stroke-width="12" stroke-linecap="round"/>
<path d="M131.622 169C149.622 183 188.622 163.5 192.122 138" stroke="#1F2024" stroke-width="12" stroke-linecap="round"/>
<circle cx="50" cy="224" r="36" fill="#1F2024" fill-opacity="0.16"/>
<g filter="url(#filter30_i_24_668)">
<circle cx="49" cy="213" r="36" fill="#AEA5EE"/>
</g>
<circle cx="49" cy="213" r="36" stroke="#1F2024" stroke-width="8"/>
<path d="M59 189C62.6403 190.938 65.7524 194.074 68 198" stroke="white" stroke-width="8" stroke-linecap="round" stroke-linejoin="round"/>
<g filter="url(#filter31_i_24_668)">
<circle cx="29" cy="213" r="24" fill="#CAE9FA"/>
</g>
<circle cx="29" cy="213" r="24" stroke="#1F2024" stroke-width="8"/>
<rect x="169" y="57" width="2" height="37" fill="#AEA5EE" stroke="#1F2024" stroke-width="8"/>
<circle cx="170" cy="56" r="12" fill="white"/>
<path d="M126 66C126 41.6995 145.699 22 170 22C194.301 22 214 41.6995 214 66V94H126V66Z" fill="white" fill-opacity="0.5" stroke="#1F2024" stroke-width="8"/>
<g filter="url(#filter32_i_24_668)">
<path d="M114 102C114 97.5817 117.582 94 122 94H218C222.418 94 226 97.5817 226 102V106H114V102Z" fill="#AEA5EE"/>
</g>
<path d="M114 102C114 97.5817 117.582 94 122 94H218C222.418 94 226 97.5817 226 102V106H114V102Z" stroke="#1F2024" stroke-width="8"/>
<path d="M147 204C147 197.373 152.373 192 159 192H167C173.627 192 179 197.373 179 204V310H147V204Z" fill="#CAE9FA" stroke="#1F2024" stroke-width="8"/>
<path d="M266 204C266 197.373 271.373 192 278 192H286C292.627 192 298 197.373 298 204V307H266V204Z" fill="#CAE9FA" stroke="#1F2024" stroke-width="8"/>
<path d="M187 203C178 186.5 146.5 187 139 203" stroke="#1F2024" stroke-width="10" stroke-linecap="round"/>
<path d="M306 203C297 186.5 265.5 187 258 203" stroke="#1F2024" stroke-width="10" stroke-linecap="round"/>
<rect x="151" y="298" width="24" height="27" fill="#CAE9FA"/>
<rect x="270" y="298" width="24" height="27" fill="#CAE9FA"/>
</g>
<defs>
<filter id="filter0_ii_24_668" x="1379" y="102" width="248" height="216" filterUnits="userSpaceOnUse" color-interpolation-filters="sRGB">
<feFlood flood-opacity="0" result="BackgroundImageFix"/>
<feBlend mode="normal" in="SourceGraphic" in2="BackgroundImageFix" result="shape"/>
<feColorMatrix in="SourceAlpha" type="matrix" values="0 0 0 0 0 0 0 0 0 0 0 0 0 0 0 0 0 0 127 0" result="hardAlpha"/>
<feOffset dy="-16"/>
<feComposite in2="hardAlpha" operator="arithmetic" k2="-1" k3="1"/>
<feColorMatrix type="matrix" values="0 0 0 0 0 0 0 0 0 0 0 0 0 0 0 0 0 0 0.25 0"/>
<feBlend mode="normal" in2="shape" result="effect1_innerShadow_24_668"/>
<feColorMatrix in="SourceAlpha" type="matrix" values="0 0 0 0 0 0 0 0 0 0 0 0 0 0 0 0 0 0 127 0" result="hardAlpha"/>
<feOffset dy="16"/>
<feComposite in2="hardAlpha" operator="arithmetic" k2="-1" k3="1"/>
<feColorMatrix type="matrix" values="0 0 0 0 1 0 0 0 0 1 0 0 0 0 1 0 0 0 0.25 0"/>
<feBlend mode="normal" in2="effect1_innerShadow_24_668" result="effect2_innerShadow_24_668"/>
</filter>
<filter id="filter1_i_24_668" x="1479" y="102" width="232" height="216" filterUnits="userSpaceOnUse" color-interpolation-filters="sRGB">
<feFlood flood-opacity="0" result="BackgroundImageFix"/>
<feBlend mode="normal" in="SourceGraphic" in2="BackgroundImageFix" result="shape"/>
<feColorMatrix in="SourceAlpha" type="matrix" values="0 0 0 0 0 0 0 0 0 0 0 0 0 0 0 0 0 0 127 0" result="hardAlpha"/>
<feOffset dx="-24" dy="8"/>
<feComposite in2="hardAlpha" operator="arithmetic" k2="-1" k3="1"/>
<feColorMatrix type="matrix" values="0 0 0 0 1 0 0 0 0 1 0 0 0 0 1 0 0 0 0.25 0"/>
<feBlend mode="normal" in2="shape" result="effect1_innerShadow_24_668"/>
</filter>
<filter id="filter2_i_24_668" x="1384" y="173" width="80" height="80" filterUnits="userSpaceOnUse" color-interpolation-filters="sRGB">
<feFlood flood-opacity="0" result="BackgroundImageFix"/>
<feBlend mode="normal" in="SourceGraphic" in2="BackgroundImageFix" result="shape"/>
<feColorMatrix in="SourceAlpha" type="matrix" values="0 0 0 0 0 0 0 0 0 0 0 0 0 0 0 0 0 0 127 0" result="hardAlpha"/>
<feOffset dx="12" dy="-8"/>
<feComposite in2="hardAlpha" operator="arithmetic" k2="-1" k3="1"/>
<feColorMatrix type="matrix" values="0 0 0 0 0 0 0 0 0 0 0 0 0 0 0 0 0 0 0.25 0"/>
<feBlend mode="normal" in2="shape" result="effect1_innerShadow_24_668"/>
</filter>
<filter id="filter3_i_24_668" x="1376" y="185" width="56" height="56" filterUnits="userSpaceOnUse" color-interpolation-filters="sRGB">
<feFlood flood-opacity="0" result="BackgroundImageFix"/>
<feBlend mode="normal" in="SourceGraphic" in2="BackgroundImageFix" result="shape"/>
<feColorMatrix in="SourceAlpha" type="matrix" values="0 0 0 0 0 0 0 0 0 0 0 0 0 0 0 0 0 0 127 0" result="hardAlpha"/>
<feOffset dx="12" dy="-8"/>
<feComposite in2="hardAlpha" operator="arithmetic" k2="-1" k3="1"/>
<feColorMatrix type="matrix" values="0 0 0 0 0 0 0 0 0 0 0 0 0 0 0 0 0 0 0.25 0"/>
<feBlend mode="normal" in2="shape" result="effect1_innerShadow_24_668"/>
</filter>
<filter id="filter4_i_24_668" x="1485" y="90" width="120" height="20" filterUnits="userSpaceOnUse" color-interpolation-filters="sRGB">
<feFlood flood-opacity="0" result="BackgroundImageFix"/>
<feBlend mode="normal" in="SourceGraphic" in2="BackgroundImageFix" result="shape"/>
<feColorMatrix in="SourceAlpha" type="matrix" values="0 0 0 0 0 0 0 0 0 0 0 0 0 0 0 0 0 0 127 0" result="hardAlpha"/>
<feOffset dx="-24" dy="8"/>
<feComposite in2="hardAlpha" operator="arithmetic" k2="-1" k3="1"/>
<feColorMatrix type="matrix" values="0 0 0 0 1 0 0 0 0 1 0 0 0 0 1 0 0 0 0.25 0"/>
<feBlend mode="normal" in2="shape" result="effect1_innerShadow_24_668"/>
</filter>
<filter id="filter5_d_24_668" x="1469" y="126" width="246" height="118" filterUnits="userSpaceOnUse" color-interpolation-filters="sRGB">
<feFlood flood-opacity="0" result="BackgroundImageFix"/>
<feColorMatrix in="SourceAlpha" type="matrix" values="0 0 0 0 0 0 0 0 0 0 0 0 0 0 0 0 0 0 127 0" result="hardAlpha"/>
<feOffset dx="-4" dy="4"/>
<feColorMatrix type="matrix" values="0 0 0 0 0 0 0 0 0 0 0 0 0 0 0 0 0 0 0.25 0"/>
<feBlend mode="normal" in2="BackgroundImageFix" result="effect1_dropShadow_24_668"/>
<feBlend mode="normal" in="SourceGraphic" in2="effect1_dropShadow_24_668" result="shape"/>
</filter>
<filter id="filter6_dii_24_668" x="1476.68" y="126" width="238.317" height="115" filterUnits="userSpaceOnUse" color-interpolation-filters="sRGB">
<feFlood flood-opacity="0" result="BackgroundImageFix"/>
<feColorMatrix in="SourceAlpha" type="matrix" values="0 0 0 0 0 0 0 0 0 0 0 0 0 0 0 0 0 0 127 0" result="hardAlpha"/>
<feOffset dx="-4" dy="4"/>
<feComposite in2="hardAlpha" operator="out"/>
<feColorMatrix type="matrix" values="0 0 0 0 0.121569 0 0 0 0 0.12549 0 0 0 0 0.141176 0 0 0 0.25 0"/>
<feBlend mode="normal" in2="BackgroundImageFix" result="effect1_dropShadow_24_668"/>
<feBlend mode="normal" in="SourceGraphic" in2="effect1_dropShadow_24_668" result="shape"/>
<feColorMatrix in="SourceAlpha" type="matrix" values="0 0 0 0 0 0 0 0 0 0 0 0 0 0 0 0 0 0 127 0" result="hardAlpha"/>
<feOffset dx="12" dy="-12"/>
<feComposite in2="hardAlpha" operator="arithmetic" k2="-1" k3="1"/>
<feColorMatrix type="matrix" values="0 0 0 0 0 0 0 0 0 0 0 0 0 0 0 0 0 0 0.25 0"/>
<feBlend mode="normal" in2="shape" result="effect2_innerShadow_24_668"/>
<feColorMatrix in="SourceAlpha" type="matrix" values="0 0 0 0 0 0 0 0 0 0 0 0 0 0 0 0 0 0 127 0" result="hardAlpha"/>
<feOffset dx="-12" dy="12"/>
<feComposite in2="hardAlpha" operator="arithmetic" k2="-1" k3="1"/>
<feColorMatrix type="matrix" values="0 0 0 0 1 0 0 0 0 1 0 0 0 0 1 0 0 0 0.5 0"/>
<feBlend mode="normal" in2="effect2_innerShadow_24_668" result="effect3_innerShadow_24_668"/>
</filter>
<filter id="filter7_i_24_668" x="1112" y="2.50418" width="324.004" height="332.496" filterUnits="userSpaceOnUse" color-interpolation-filters="sRGB">
<feFlood flood-opacity="0" result="BackgroundImageFix"/>
<feBlend mode="normal" in="SourceGraphic" in2="BackgroundImageFix" result="shape"/>
<feColorMatrix in="SourceAlpha" type="matrix" values="0 0 0 0 0 0 0 0 0 0 0 0 0 0 0 0 0 0 127 0" result="hardAlpha"/>
<feOffset dx="17" dy="-12"/>
<feComposite in2="hardAlpha" operator="arithmetic" k2="-1" k3="1"/>
<feColorMatrix type="matrix" values="0 0 0 0 0 0 0 0 0 0 0 0 0 0 0 0 0 0 0.25 0"/>
<feBlend mode="normal" in2="shape" result="effect1_innerShadow_24_668"/>
</filter>
<filter id="filter8_i_24_668" x="1101" y="170" width="114" height="93" filterUnits="userSpaceOnUse" color-interpolation-filters="sRGB">
<feFlood flood-opacity="0" result="BackgroundImageFix"/>
<feBlend mode="normal" in="SourceGraphic" in2="BackgroundImageFix" result="shape"/>
<feColorMatrix in="SourceAlpha" type="matrix" values="0 0 0 0 0 0 0 0 0 0 0 0 0 0 0 0 0 0 127 0" result="hardAlpha"/>
<feOffset dy="-20"/>
<feComposite in2="hardAlpha" operator="arithmetic" k2="-1" k3="1"/>
<feColorMatrix type="matrix" values="0 0 0 0 0 0 0 0 0 0 0 0 0 0 0 0 0 0 0.25 0"/>
<feBlend mode="normal" in2="shape" result="effect1_innerShadow_24_668"/>
</filter>
<filter id="filter9_ii_24_668" x="829" y="102" width="248" height="216" filterUnits="userSpaceOnUse" color-interpolation-filters="sRGB">
<feFlood flood-opacity="0" result="BackgroundImageFix"/>
<feBlend mode="normal" in="SourceGraphic" in2="BackgroundImageFix" result="shape"/>
<feColorMatrix in="SourceAlpha" type="matrix" values="0 0 0 0 0 0 0 0 0 0 0 0 0 0 0 0 0 0 127 0" result="hardAlpha"/>
<feOffset dy="-16"/>
<feComposite in2="hardAlpha" operator="arithmetic" k2="-1" k3="1"/>
<feColorMatrix type="matrix" values="0 0 0 0 0 0 0 0 0 0 0 0 0 0 0 0 0 0 0.25 0"/>
<feBlend mode="normal" in2="shape" result="effect1_innerShadow_24_668"/>
<feColorMatrix in="SourceAlpha" type="matrix" values="0 0 0 0 0 0 0 0 0 0 0 0 0 0 0 0 0 0 127 0" result="hardAlpha"/>
<feOffset dy="16"/>
<feComposite in2="hardAlpha" operator="arithmetic" k2="-1" k3="1"/>
<feColorMatrix type="matrix" values="0 0 0 0 1 0 0 0 0 1 0 0 0 0 1 0 0 0 0.25 0"/>
<feBlend mode="normal" in2="effect1_innerShadow_24_668" result="effect2_innerShadow_24_668"/>
</filter>
<filter id="filter10_i_24_668" x="929" y="102" width="232" height="216" filterUnits="userSpaceOnUse" color-interpolation-filters="sRGB">
<feFlood flood-opacity="0" result="BackgroundImageFix"/>
<feBlend mode="normal" in="SourceGraphic" in2="BackgroundImageFix" result="shape"/>
<feColorMatrix in="SourceAlpha" type="matrix" values="0 0 0 0 0 0 0 0 0 0 0 0 0 0 0 0 0 0 127 0" result="hardAlpha"/>
<feOffset dx="-24" dy="8"/>
<feComposite in2="hardAlpha" operator="arithmetic" k2="-1" k3="1"/>
<feColorMatrix type="matrix" values="0 0 0 0 1 0 0 0 0 1 0 0 0 0 1 0 0 0 0.25 0"/>
<feBlend mode="normal" in2="shape" result="effect1_innerShadow_24_668"/>
</filter>
<filter id="filter11_ii_24_668" x="825" y="181" width="89" height="64" filterUnits="userSpaceOnUse" color-interpolation-filters="sRGB">
<feFlood flood-opacity="0" result="BackgroundImageFix"/>
<feBlend mode="normal" in="SourceGraphic" in2="BackgroundImageFix" result="shape"/>
<feColorMatrix in="SourceAlpha" type="matrix" values="0 0 0 0 0 0 0 0 0 0 0 0 0 0 0 0 0 0 127 0" result="hardAlpha"/>
<feOffset dy="-16"/>
<feComposite in2="hardAlpha" operator="arithmetic" k2="-1" k3="1"/>
<feColorMatrix type="matrix" values="0 0 0 0 0 0 0 0 0 0 0 0 0 0 0 0 0 0 0.25 0"/>
<feBlend mode="normal" in2="shape" result="effect1_innerShadow_24_668"/>
<feColorMatrix in="SourceAlpha" type="matrix" values="0 0 0 0 0 0 0 0 0 0 0 0 0 0 0 0 0 0 127 0" result="hardAlpha"/>
<feOffset dy="16"/>
<feComposite in2="hardAlpha" operator="arithmetic" k2="-1" k3="1"/>
<feColorMatrix type="matrix" values="0 0 0 0 1 0 0 0 0 1 0 0 0 0 1 0 0 0 0.25 0"/>
<feBlend mode="normal" in2="effect1_innerShadow_24_668" result="effect2_innerShadow_24_668"/>
</filter>
<filter id="filter12_i_24_668" x="882" y="181" width="32" height="64" filterUnits="userSpaceOnUse" color-interpolation-filters="sRGB">
<feFlood flood-opacity="0" result="BackgroundImageFix"/>
<feBlend mode="normal" in="SourceGraphic" in2="BackgroundImageFix" result="shape"/>
<feColorMatrix in="SourceAlpha" type="matrix" values="0 0 0 0 0 0 0 0 0 0 0 0 0 0 0 0 0 0 127 0" result="hardAlpha"/>
<feOffset dx="-24" dy="8"/>
<feComposite in2="hardAlpha" operator="arithmetic" k2="-1" k3="1"/>
<feColorMatrix type="matrix" values="0 0 0 0 1 0 0 0 0 1 0 0 0 0 1 0 0 0 0.25 0"/>
<feBlend mode="normal" in2="shape" result="effect1_innerShadow_24_668"/>
</filter>
<filter id="filter13_i_24_668" x="968" y="20" width="54" height="54" filterUnits="userSpaceOnUse" color-interpolation-filters="sRGB">
<feFlood flood-opacity="0" result="BackgroundImageFix"/>
<feBlend mode="normal" in="SourceGraphic" in2="BackgroundImageFix" result="shape"/>
<feColorMatrix in="SourceAlpha" type="matrix" values="0 0 0 0 0 0 0 0 0 0 0 0 0 0 0 0 0 0 127 0" result="hardAlpha"/>
<feOffset dx="12" dy="-8"/>
<feComposite in2="hardAlpha" operator="arithmetic" k2="-1" k3="1"/>
<feColorMatrix type="matrix" values="0 0 0 0 0 0 0 0 0 0 0 0 0 0 0 0 0 0 0.25 0"/>
<feBlend mode="normal" in2="shape" result="effect1_innerShadow_24_668"/>
</filter>
<filter id="filter14_i_24_668" x="972" y="90" width="46" height="20" filterUnits="userSpaceOnUse" color-interpolation-filters="sRGB">
<feFlood flood-opacity="0" result="BackgroundImageFix"/>
<feBlend mode="normal" in="SourceGraphic" in2="BackgroundImageFix" result="shape"/>
<feColorMatrix in="SourceAlpha" type="matrix" values="0 0 0 0 0 0 0 0 0 0 0 0 0 0 0 0 0 0 127 0" result="hardAlpha"/>
<feOffset dx="-24" dy="8"/>
<feComposite in2="hardAlpha" operator="arithmetic" k2="-1" k3="1"/>
<feColorMatrix type="matrix" values="0 0 0 0 1 0 0 0 0 1 0 0 0 0 1 0 0 0 0.25 0"/>
<feBlend mode="normal" in2="shape" result="effect1_innerShadow_24_668"/>
</filter>
<filter id="filter15_d_24_668" x="935" y="121" width="218.953" height="176" filterUnits="userSpaceOnUse" color-interpolation-filters="sRGB">
<feFlood flood-opacity="0" result="BackgroundImageFix"/>
<feColorMatrix in="SourceAlpha" type="matrix" values="0 0 0 0 0 0 0 0 0 0 0 0 0 0 0 0 0 0 127 0" result="hardAlpha"/>
<feOffset dx="-4" dy="4"/>
<feColorMatrix type="matrix" values="0 0 0 0 0 0 0 0 0 0 0 0 0 0 0 0 0 0 0.25 0"/>
<feBlend mode="normal" in2="BackgroundImageFix" result="effect1_dropShadow_24_668"/>
<feBlend mode="normal" in="SourceGraphic" in2="effect1_dropShadow_24_668" result="shape"/>
</filter>
<filter id="filter16_i_24_668" x="1049.23" y="121" width="104.721" height="171" filterUnits="userSpaceOnUse" color-interpolation-filters="sRGB">
<feFlood flood-opacity="0" result="BackgroundImageFix"/>
<feBlend mode="normal" in="SourceGraphic" in2="BackgroundImageFix" result="shape"/>
<feColorMatrix in="SourceAlpha" type="matrix" values="0 0 0 0 0 0 0 0 0 0 0 0 0 0 0 0 0 0 127 0" result="hardAlpha"/>
<feOffset dx="16" dy="-8"/>
<feComposite in2="hardAlpha" operator="arithmetic" k2="-1" k3="1"/>
<feColorMatrix type="matrix" values="0 0 0 0 0 0 0 0 0 0 0 0 0 0 0 0 0 0 0.25 0"/>
<feBlend mode="normal" in2="shape" result="effect1_innerShadow_24_668"/>
</filter>
<filter id="filter17_i_24_668" x="943.593" y="121" width="104.721" height="171" filterUnits="userSpaceOnUse" color-interpolation-filters="sRGB">
<feFlood flood-opacity="0" result="BackgroundImageFix"/>
<feBlend mode="normal" in="SourceGraphic" in2="BackgroundImageFix" result="shape"/>
<feColorMatrix in="SourceAlpha" type="matrix" values="0 0 0 0 0 0 0 0 0 0 0 0 0 0 0 0 0 0 127 0" result="hardAlpha"/>
<feOffset dx="16" dy="-8"/>
<feComposite in2="hardAlpha" operator="arithmetic" k2="-1" k3="1"/>
<feColorMatrix type="matrix" values="0 0 0 0 0 0 0 0 0 0 0 0 0 0 0 0 0 0 0.25 0"/>
<feBlend mode="normal" in2="shape" result="effect1_innerShadow_24_668"/>
</filter>
<filter id="filter18_ii_24_668" x="554" y="102" width="248" height="216" filterUnits="userSpaceOnUse" color-interpolation-filters="sRGB">
<feFlood flood-opacity="0" result="BackgroundImageFix"/>
<feBlend mode="normal" in="SourceGraphic" in2="BackgroundImageFix" result="shape"/>
<feColorMatrix in="SourceAlpha" type="matrix" values="0 0 0 0 0 0 0 0 0 0 0 0 0 0 0 0 0 0 127 0" result="hardAlpha"/>
<feOffset dy="-16"/>
<feComposite in2="hardAlpha" operator="arithmetic" k2="-1" k3="1"/>
<feColorMatrix type="matrix" values="0 0 0 0 0 0 0 0 0 0 0 0 0 0 0 0 0 0 0.25 0"/>
<feBlend mode="normal" in2="shape" result="effect1_innerShadow_24_668"/>
<feColorMatrix in="SourceAlpha" type="matrix" values="0 0 0 0 0 0 0 0 0 0 0 0 0 0 0 0 0 0 127 0" result="hardAlpha"/>
<feOffset dy="16"/>
<feComposite in2="hardAlpha" operator="arithmetic" k2="-1" k3="1"/>
<feColorMatrix type="matrix" values="0 0 0 0 1 0 0 0 0 1 0 0 0 0 1 0 0 0 0.25 0"/>
<feBlend mode="normal" in2="effect1_innerShadow_24_668" result="effect2_innerShadow_24_668"/>
</filter>
<filter id="filter19_i_24_668" x="654" y="102" width="232" height="216" filterUnits="userSpaceOnUse" color-interpolation-filters="sRGB">
<feFlood flood-opacity="0" result="BackgroundImageFix"/>
<feBlend mode="normal" in="SourceGraphic" in2="BackgroundImageFix" result="shape"/>
<feColorMatrix in="SourceAlpha" type="matrix" values="0 0 0 0 0 0 0 0 0 0 0 0 0 0 0 0 0 0 127 0" result="hardAlpha"/>
<feOffset dx="-24" dy="8"/>
<feComposite in2="hardAlpha" operator="arithmetic" k2="-1" k3="1"/>
<feColorMatrix type="matrix" values="0 0 0 0 1 0 0 0 0 1 0 0 0 0 1 0 0 0 0.25 0"/>
<feBlend mode="normal" in2="shape" result="effect1_innerShadow_24_668"/>
</filter>
<filter id="filter20_i_24_668" x="583" y="147" width="40" height="40" filterUnits="userSpaceOnUse" color-interpolation-filters="sRGB">
<feFlood flood-opacity="0" result="BackgroundImageFix"/>
<feBlend mode="normal" in="SourceGraphic" in2="BackgroundImageFix" result="shape"/>
<feColorMatrix in="SourceAlpha" type="matrix" values="0 0 0 0 0 0 0 0 0 0 0 0 0 0 0 0 0 0 127 0" result="hardAlpha"/>
<feOffset dx="12" dy="-8"/>
<feComposite in2="hardAlpha" operator="arithmetic" k2="-1" k3="1"/>
<feColorMatrix type="matrix" values="0 0 0 0 0 0 0 0 0 0 0 0 0 0 0 0 0 0 0.25 0"/>
<feBlend mode="normal" in2="shape" result="effect1_innerShadow_24_668"/>
</filter>
<filter id="filter21_ii_24_668" x="562" y="204" width="81" height="49" filterUnits="userSpaceOnUse" color-interpolation-filters="sRGB">
<feFlood flood-opacity="0" result="BackgroundImageFix"/>
<feBlend mode="normal" in="SourceGraphic" in2="BackgroundImageFix" result="shape"/>
<feColorMatrix in="SourceAlpha" type="matrix" values="0 0 0 0 0 0 0 0 0 0 0 0 0 0 0 0 0 0 127 0" result="hardAlpha"/>
<feOffset dy="-16"/>
<feComposite in2="hardAlpha" operator="arithmetic" k2="-1" k3="1"/>
<feColorMatrix type="matrix" values="0 0 0 0 0 0 0 0 0 0 0 0 0 0 0 0 0 0 0.25 0"/>
<feBlend mode="normal" in2="shape" result="effect1_innerShadow_24_668"/>
<feColorMatrix in="SourceAlpha" type="matrix" values="0 0 0 0 0 0 0 0 0 0 0 0 0 0 0 0 0 0 127 0" result="hardAlpha"/>
<feOffset dy="16"/>
<feComposite in2="hardAlpha" operator="arithmetic" k2="-1" k3="1"/>
<feColorMatrix type="matrix" values="0 0 0 0 1 0 0 0 0 1 0 0 0 0 1 0 0 0 0.25 0"/>
<feBlend mode="normal" in2="effect1_innerShadow_24_668" result="effect2_innerShadow_24_668"/>
</filter>
<filter id="filter22_i_24_668" x="610" y="204" width="32.5891" height="49" filterUnits="userSpaceOnUse" color-interpolation-filters="sRGB">
<feFlood flood-opacity="0" result="BackgroundImageFix"/>
<feBlend mode="normal" in="SourceGraphic" in2="BackgroundImageFix" result="shape"/>
<feColorMatrix in="SourceAlpha" type="matrix" values="0 0 0 0 0 0 0 0 0 0 0 0 0 0 0 0 0 0 127 0" result="hardAlpha"/>
<feOffset dx="-24" dy="8"/>
<feComposite in2="hardAlpha" operator="arithmetic" k2="-1" k3="1"/>
<feColorMatrix type="matrix" values="0 0 0 0 1 0 0 0 0 1 0 0 0 0 1 0 0 0 0.25 0"/>
<feBlend mode="normal" in2="shape" result="effect1_innerShadow_24_668"/>
</filter>
<filter id="filter23_i_24_668" x="660" y="90" width="120" height="20" filterUnits="userSpaceOnUse" color-interpolation-filters="sRGB">
<feFlood flood-opacity="0" result="BackgroundImageFix"/>
<feBlend mode="normal" in="SourceGraphic" in2="BackgroundImageFix" result="shape"/>
<feColorMatrix in="SourceAlpha" type="matrix" values="0 0 0 0 0 0 0 0 0 0 0 0 0 0 0 0 0 0 127 0" result="hardAlpha"/>
<feOffset dx="-24" dy="8"/>
<feComposite in2="hardAlpha" operator="arithmetic" k2="-1" k3="1"/>
<feColorMatrix type="matrix" values="0 0 0 0 1 0 0 0 0 1 0 0 0 0 1 0 0 0 0.25 0"/>
<feBlend mode="normal" in2="shape" result="effect1_innerShadow_24_668"/>
</filter>
<filter id="filter24_dii_24_668" x="649" y="202" width="241" height="99" filterUnits="userSpaceOnUse" color-interpolation-filters="sRGB">
<feFlood flood-opacity="0" result="BackgroundImageFix"/>
<feColorMatrix in="SourceAlpha" type="matrix" values="0 0 0 0 0 0 0 0 0 0 0 0 0 0 0 0 0 0 127 0" result="hardAlpha"/>
<feOffset dx="-4" dy="4"/>
<feComposite in2="hardAlpha" operator="out"/>
<feColorMatrix type="matrix" values="0 0 0 0 0.121569 0 0 0 0 0.12549 0 0 0 0 0.141176 0 0 0 0.25 0"/>
<feBlend mode="normal" in2="BackgroundImageFix" result="effect1_dropShadow_24_668"/>
<feBlend mode="normal" in="SourceGraphic" in2="effect1_dropShadow_24_668" result="shape"/>
<feColorMatrix in="SourceAlpha" type="matrix" values="0 0 0 0 0 0 0 0 0 0 0 0 0 0 0 0 0 0 127 0" result="hardAlpha"/>
<feOffset dx="12" dy="-12"/>
<feComposite in2="hardAlpha" operator="arithmetic" k2="-1" k3="1"/>
<feColorMatrix type="matrix" values="0 0 0 0 0 0 0 0 0 0 0 0 0 0 0 0 0 0 0.25 0"/>
<feBlend mode="normal" in2="shape" result="effect2_innerShadow_24_668"/>
<feColorMatrix in="SourceAlpha" type="matrix" values="0 0 0 0 0 0 0 0 0 0 0 0 0 0 0 0 0 0 127 0" result="hardAlpha"/>
<feOffset dx="-12" dy="12"/>
<feComposite in2="hardAlpha" operator="arithmetic" k2="-1" k3="1"/>
<feColorMatrix type="matrix" values="0 0 0 0 1 0 0 0 0 1 0 0 0 0 1 0 0 0 0.5 0"/>
<feBlend mode="normal" in2="effect2_innerShadow_24_668" result="effect3_innerShadow_24_668"/>
</filter>
<filter id="filter25_ii_24_668" x="279" y="102" width="248" height="216" filterUnits="userSpaceOnUse" color-interpolation-filters="sRGB">
<feFlood flood-opacity="0" result="BackgroundImageFix"/>
<feBlend mode="normal" in="SourceGraphic" in2="BackgroundImageFix" result="shape"/>
<feColorMatrix in="SourceAlpha" type="matrix" values="0 0 0 0 0 0 0 0 0 0 0 0 0 0 0 0 0 0 127 0" result="hardAlpha"/>
<feOffset dy="-16"/>
<feComposite in2="hardAlpha" operator="arithmetic" k2="-1" k3="1"/>
<feColorMatrix type="matrix" values="0 0 0 0 0 0 0 0 0 0 0 0 0 0 0 0 0 0 0.25 0"/>
<feBlend mode="normal" in2="shape" result="effect1_innerShadow_24_668"/>
<feColorMatrix in="SourceAlpha" type="matrix" values="0 0 0 0 0 0 0 0 0 0 0 0 0 0 0 0 0 0 127 0" result="hardAlpha"/>
<feOffset dy="16"/>
<feComposite in2="hardAlpha" operator="arithmetic" k2="-1" k3="1"/>
<feColorMatrix type="matrix" values="0 0 0 0 1 0 0 0 0 1 0 0 0 0 1 0 0 0 0.25 0"/>
<feBlend mode="normal" in2="effect1_innerShadow_24_668" result="effect2_innerShadow_24_668"/>
</filter>
<filter id="filter26_i_24_668" x="379" y="102" width="232" height="216" filterUnits="userSpaceOnUse" color-interpolation-filters="sRGB">
<feFlood flood-opacity="0" result="BackgroundImageFix"/>
<feBlend mode="normal" in="SourceGraphic" in2="BackgroundImageFix" result="shape"/>
<feColorMatrix in="SourceAlpha" type="matrix" values="0 0 0 0 0 0 0 0 0 0 0 0 0 0 0 0 0 0 127 0" result="hardAlpha"/>
<feOffset dx="-24" dy="8"/>
<feComposite in2="hardAlpha" operator="arithmetic" k2="-1" k3="1"/>
<feColorMatrix type="matrix" values="0 0 0 0 1 0 0 0 0 1 0 0 0 0 1 0 0 0 0.25 0"/>
<feBlend mode="normal" in2="shape" result="effect1_innerShadow_24_668"/>
</filter>
<filter id="filter27_ddi_24_668" x="436" y="228" width="126" height="38" filterUnits="userSpaceOnUse" color-interpolation-filters="sRGB">
<feFlood flood-opacity="0" result="BackgroundImageFix"/>
<feColorMatrix in="SourceAlpha" type="matrix" values="0 0 0 0 0 0 0 0 0 0 0 0 0 0 0 0 0 0 127 0" result="hardAlpha"/>
<feOffset dx="-4"/>
<feColorMatrix type="matrix" values="0 0 0 0 1 0 0 0 0 1 0 0 0 0 1 0 0 0 0.25 0"/>
<feBlend mode="normal" in2="BackgroundImageFix" result="effect1_dropShadow_24_668"/>
<feColorMatrix in="SourceAlpha" type="matrix" values="0 0 0 0 0 0 0 0 0 0 0 0 0 0 0 0 0 0 127 0" result="hardAlpha"/>
<feOffset dx="4"/>
<feColorMatrix type="matrix" values="0 0 0 0 0 0 0 0 0 0 0 0 0 0 0 0 0 0 0.25 0"/>
<feBlend mode="normal" in2="effect1_dropShadow_24_668" result="effect2_dropShadow_24_668"/>
<feBlend mode="normal" in="SourceGraphic" in2="effect2_dropShadow_24_668" result="shape"/>
<feColorMatrix in="SourceAlpha" type="matrix" values="0 0 0 0 0 0 0 0 0 0 0 0 0 0 0 0 0 0 127 0" result="hardAlpha"/>
<feOffset dx="-4"/>
<feComposite in2="hardAlpha" operator="arithmetic" k2="-1" k3="1"/>
<feColorMatrix type="matrix" values="0 0 0 0 0 0 0 0 0 0 0 0 0 0 0 0 0 0 0.25 0"/>
<feBlend mode="normal" in2="shape" result="effect3_innerShadow_24_668"/>
</filter>
<filter id="filter28_ii_24_668" x="4" y="102" width="248" height="216" filterUnits="userSpaceOnUse" color-interpolation-filters="sRGB">
<feFlood flood-opacity="0" result="BackgroundImageFix"/>
<feBlend mode="normal" in="SourceGraphic" in2="BackgroundImageFix" result="shape"/>
<feColorMatrix in="SourceAlpha" type="matrix" values="0 0 0 0 0 0 0 0 0 0 0 0 0 0 0 0 0 0 127 0" result="hardAlpha"/>
<feOffset dy="-16"/>
<feComposite in2="hardAlpha" operator="arithmetic" k2="-1" k3="1"/>
<feColorMatrix type="matrix" values="0 0 0 0 0 0 0 0 0 0 0 0 0 0 0 0 0 0 0.25 0"/>
<feBlend mode="normal" in2="shape" result="effect1_innerShadow_24_668"/>
<feColorMatrix in="SourceAlpha" type="matrix" values="0 0 0 0 0 0 0 0 0 0 0 0 0 0 0 0 0 0 127 0" result="hardAlpha"/>
<feOffset dy="16"/>
<feComposite in2="hardAlpha" operator="arithmetic" k2="-1" k3="1"/>
<feColorMatrix type="matrix" values="0 0 0 0 1 0 0 0 0 1 0 0 0 0 1 0 0 0 0.25 0"/>
<feBlend mode="normal" in2="effect1_innerShadow_24_668" result="effect2_innerShadow_24_668"/>
</filter>
<filter id="filter29_i_24_668" x="104" y="102" width="232" height="216" filterUnits="userSpaceOnUse" color-interpolation-filters="sRGB">
<feFlood flood-opacity="0" result="BackgroundImageFix"/>
<feBlend mode="normal" in="SourceGraphic" in2="BackgroundImageFix" result="shape"/>
<feColorMatrix in="SourceAlpha" type="matrix" values="0 0 0 0 0 0 0 0 0 0 0 0 0 0 0 0 0 0 127 0" result="hardAlpha"/>
<feOffset dx="-24" dy="8"/>
<feComposite in2="hardAlpha" operator="arithmetic" k2="-1" k3="1"/>
<feColorMatrix type="matrix" values="0 0 0 0 1 0 0 0 0 1 0 0 0 0 1 0 0 0 0.25 0"/>
<feBlend mode="normal" in2="shape" result="effect1_innerShadow_24_668"/>
</filter>
<filter id="filter30_i_24_668" x="9" y="173" width="80" height="80" filterUnits="userSpaceOnUse" color-interpolation-filters="sRGB">
<feFlood flood-opacity="0" result="BackgroundImageFix"/>
<feBlend mode="normal" in="SourceGraphic" in2="BackgroundImageFix" result="shape"/>
<feColorMatrix in="SourceAlpha" type="matrix" values="0 0 0 0 0 0 0 0 0 0 0 0 0 0 0 0 0 0 127 0" result="hardAlpha"/>
<feOffset dx="12" dy="-8"/>
<feComposite in2="hardAlpha" operator="arithmetic" k2="-1" k3="1"/>
<feColorMatrix type="matrix" values="0 0 0 0 0 0 0 0 0 0 0 0 0 0 0 0 0 0 0.25 0"/>
<feBlend mode="normal" in2="shape" result="effect1_innerShadow_24_668"/>
</filter>
<filter id="filter31_i_24_668" x="1" y="185" width="56" height="56" filterUnits="userSpaceOnUse" color-interpolation-filters="sRGB">
<feFlood flood-opacity="0" result="BackgroundImageFix"/>
<feBlend mode="normal" in="SourceGraphic" in2="BackgroundImageFix" result="shape"/>
<feColorMatrix in="SourceAlpha" type="matrix" values="0 0 0 0 0 0 0 0 0 0 0 0 0 0 0 0 0 0 127 0" result="hardAlpha"/>
<feOffset dx="12" dy="-8"/>
<feComposite in2="hardAlpha" operator="arithmetic" k2="-1" k3="1"/>
<feColorMatrix type="matrix" values="0 0 0 0 0 0 0 0 0 0 0 0 0 0 0 0 0 0 0.25 0"/>
<feBlend mode="normal" in2="shape" result="effect1_innerShadow_24_668"/>
</filter>
<filter id="filter32_i_24_668" x="110" y="90" width="120" height="20" filterUnits="userSpaceOnUse" color-interpolation-filters="sRGB">
<feFlood flood-opacity="0" result="BackgroundImageFix"/>
<feBlend mode="normal" in="SourceGraphic" in2="BackgroundImageFix" result="shape"/>
<feColorMatrix in="SourceAlpha" type="matrix" values="0 0 0 0 0 0 0 0 0 0 0 0 0 0 0 0 0 0 127 0" result="hardAlpha"/>
<feOffset dx="-24" dy="8"/>
<feComposite in2="hardAlpha" operator="arithmetic" k2="-1" k3="1"/>
<feColorMatrix type="matrix" values="0 0 0 0 1 0 0 0 0 1 0 0 0 0 1 0 0 0 0.25 0"/>
<feBlend mode="normal" in2="shape" result="effect1_innerShadow_24_668"/>
</filter>
<clipPath id="clip0_24_668">
<rect width="340" height="340" fill="white" transform="translate(1375)"/>
</clipPath>
<clipPath id="clip1_24_668">
<rect width="340" height="340" fill="white" transform="translate(825)"/>
</clipPath>
<clipPath id="clip2_24_668">
<rect width="340" height="340" fill="white" transform="translate(550)"/>
</clipPath>
<clipPath id="clip3_24_668">
<rect width="340" height="340" fill="white" transform="translate(275)"/>
</clipPath>
<clipPath id="clip4_24_668">
<rect x="443" y="231" width="112" height="32" rx="16" fill="white"/>
</clipPath>
<clipPath id="clip5_24_668">
<rect width="340" height="340" fill="white"/>
</clipPath>
</defs>
</svg>
